<svg xmlns="http://www.w3.org/2000/svg" width="149" height="114" viewBox="0 0 149 114" fill="none">
    <g clip-path="url(#clip0_6_6)">
        <path d="M37.8 16.6667C18.7333 24.6667 2.2 32.2667 1.13333 33.3334C-0.333335 34.8 -0.600002 36 0.333332 37.4667C1.13333 38.5334 18.0667 46.4 38.2 54.8L74.6 70.1334L102.2 58.5334C117.267 52.2667 130.467 46.6667 131.4 46.4C132.6 45.8667 133 49.7334 133 63.2C133 77.0667 132.6 80.9334 131.133 81.4667C128.333 82.5334 125.933 89.3334 126.867 93.6C127.4 95.7334 126.867 101.333 125.8 106C123.4 116 124.333 117.867 130.333 115.333C133.8 113.867 135.533 113.867 139.267 115.2C141.933 116.267 144.467 116.4 145.133 115.733C145.8 115.067 145.133 110.933 143.667 106C142.067 100.8 141.4 95.6 141.8 93.2C142.333 90.5334 141.8 87.4667 140.467 84.9334C138.867 81.7334 138.333 76.5334 138.333 62V43.2L143 41.2C148.467 38.9334 150.2 36 147.533 33.2C145.267 30.9334 77.1333 2.00005 74.3333 2.13338C73.2667 2.13338 56.7333 8.66672 37.8 16.6667Z"
              fill="#323738"/>
        <path d="M29 71.4667C29 88.2667 29.5333 89.3334 41.9333 94.9334C63 104.667 88.3333 104.4 107.933 94.5334C119.267 88.8001 119.667 88.0001 119.667 71.4667V56.9334L99.4 65.4667C88.3333 70.2667 77.9333 74.4 76.3333 74.8C74.6 75.2001 66.7333 72.6667 56.3333 68.2667C46.7333 64.2667 36.7333 60 34.0667 58.9334L29 56.8V71.4667Z"
              fill="#323738"/>
    </g>
    <defs>
        <clipPath id="clip0_6_6">
            <rect width="149" height="112.401" fill="white" transform="translate(0 0.863525)"/>
        </clipPath>
    </defs>
</svg>