<svg xmlns="http://www.w3.org/2000/svg" width="107" height="114" viewBox="0 0 107 114" fill="none">
    <g clip-path="url(#clip0_6_10)">
        <path d="M55.9216 6.74056C58.3432 10.138 20.5665 35.8614 2.64684 42.6562C0.225263 43.6269 -0.743368 45.5683 0.709579 47.5097C2.64684 49.4511 17.1763 44.5976 33.1587 36.3467C49.1412 28.5812 63.6706 23.2423 65.1236 25.1837C68.9981 28.5812 77.7158 16.9328 77.7158 7.71125C77.7158 4.79917 71.904 1.88709 65.1236 1.88709C58.3432 1.88709 53.9843 3.82848 55.9216 6.74056Z"
              fill="#323738"/>
        <path d="M87.4021 74.6891C87.4021 110.119 88.3707 113.517 97.0884 113.517C105.806 113.517 106.775 110.119 106.775 74.6891C106.775 39.2588 105.806 35.8614 97.0884 35.8614C88.3707 35.8614 87.4021 39.2588 87.4021 74.6891Z"
              fill="#323738"/>
        <path d="M58.3431 81.9693C58.3431 110.119 59.3118 113.517 68.0295 113.517C76.7471 113.517 77.7158 110.119 77.7158 81.9693C77.7158 53.8192 76.7471 50.4218 68.0295 50.4218C59.3118 50.4218 58.3431 53.8192 58.3431 81.9693Z"
              fill="#323738"/>
        <path d="M29.2842 89.2495C29.2842 110.119 30.7372 113.517 38.9705 113.517C47.2039 113.517 48.6568 110.119 48.6568 89.2495C48.6568 68.3796 47.2039 64.9822 38.9705 64.9822C30.7372 64.9822 29.2842 68.3796 29.2842 89.2495Z"
              fill="#323738"/>
        <path d="M0.22525 96.5297C0.22525 110.119 2.16251 113.517 9.91157 113.517C17.6606 113.517 19.5979 110.119 19.5979 96.5297C19.5979 82.94 17.6606 79.5426 9.91157 79.5426C2.16251 79.5426 0.22525 82.94 0.22525 96.5297Z"
              fill="#323738"/>
    </g>
    <defs>
        <clipPath id="clip0_6_10">
            <rect width="107" height="112.401" fill="white" transform="translate(0 0.779327)"/>
        </clipPath>
    </defs>
</svg>