<svg width="144" height="120" viewBox="0 0 144 120" fill="none" xmlns="http://www.w3.org/2000/svg">
<g clip-path="url(#clip0_6_2)">
<path d="M91.812 0L61.2668 19.6905L64.3628 21.3932L91.5384 3.87444L137.633 30.0961L111.194 47.1394L112.482 47.8473V50.0077L133.19 36.6578L137.536 39.1305L112.481 55.2816V58.98L132.785 45.8916L137.536 48.5953L112.481 64.7464V68.4448L132.785 55.3564L137.536 58.0601L112.481 74.2112V77.9096L143.905 57.6525L136.106 53.2162L143.905 48.1883L136.105 43.7514L143.904 38.7236L136.51 34.5172L144 29.6888L91.8117 0H91.812ZM101.571 14.1147C94.9624 17.4449 86.1598 18.0084 79.962 15.4974L67.8459 23.3078L107.71 45.2244L119.202 37.8169C114.675 34.2279 115.052 28.8729 120.126 24.6707L101.571 14.1147H101.571ZM60.5487 25.7699L38.3433 40.3117L80.9427 64.9401L81.3605 64.672C82.1459 64.164 83.2547 63.4447 84.5779 62.5857C87.2228 60.8685 90.7232 58.5917 94.2135 56.3202C99.2403 53.0487 101.831 51.3608 104.239 49.7916L60.5487 25.7699ZM96.8205 26.139C96.8208 26.139 96.8212 26.139 96.8215 26.139C97.8261 26.1451 98.7472 26.3614 99.435 26.7526C99.8354 26.9802 100.146 27.2611 100.349 27.579C100.552 27.897 100.643 28.2458 100.618 28.6056C100.592 28.9655 100.451 29.3292 100.201 29.6761C99.9511 30.023 99.598 30.3462 99.1618 30.6273C98.7257 30.9085 98.215 31.142 97.6589 31.3146C97.1029 31.4872 96.5123 31.5955 95.9209 31.6333C95.3296 31.6711 94.749 31.6376 94.2124 31.5348C93.6757 31.4321 93.1935 31.262 92.7934 31.0343C91.9852 30.5745 91.5599 29.9081 91.6112 29.1815C91.6624 28.455 92.186 27.7279 93.0666 27.1602C93.5668 26.8377 94.1641 26.5784 94.8141 26.4015C95.4641 26.2247 96.15 26.1349 96.8205 26.139ZM28.2069 41.0029L-4.90419 62.3469L2.48953 66.5532L-5 71.3817L2.79927 75.8183L-5 80.8464L2.79927 85.2831L-5 90.3112L47.1883 120L78.697 99.6873V95.9899L47.4619 116.125L1.36808 89.9033L5.84603 87.0166L47.1883 110.535L78.697 90.2229V86.5254L47.4619 106.661L1.36808 80.4388L5.84603 77.5522L47.1883 101.07L78.697 80.7584V77.061L47.4619 97.1963L1.36808 70.9744L5.53661 68.2865L47.2847 92.036L78.697 71.7858V70.1926L76.9756 69.1976L47.5571 88.1612L1.46452 61.9396L31.2317 42.7507L28.2066 41.002L28.2069 41.0029ZM34.634 44.7193L19.895 54.22C24.4216 57.8083 24.0446 63.1633 18.9708 67.3662L37.5259 77.9222C44.1343 74.5917 52.9363 74.0285 59.1341 76.5392L73.5732 67.2312L34.6334 44.719L34.634 44.7193ZM106.827 54.8747C104.3 56.5205 102.072 57.9733 97.2889 61.0859C93.7983 63.3583 90.2969 65.6351 87.6482 67.3555C86.3235 68.2152 85.2121 68.936 84.4195 69.4477C84.3913 69.4667 84.3796 69.473 84.352 69.491V96.5985L106.827 81.4275L106.827 54.8747ZM43.6895 60.3893C44.6943 60.3956 45.6154 60.6121 46.3031 61.0035C47.1113 61.4633 47.5365 62.1298 47.4853 62.8563C47.434 63.5829 46.9105 64.31 46.0298 64.8777C45.1491 65.4453 43.9836 65.807 42.7895 65.8833C41.5954 65.9596 40.4706 65.7443 39.6623 65.2846C38.8541 64.8249 38.4289 64.1584 38.4802 63.4319C38.5314 62.7053 39.055 61.9782 39.9356 61.4105C40.4358 61.0881 41.0332 60.8288 41.6832 60.652C42.3332 60.4753 43.019 60.3855 43.6895 60.3896V60.3893Z" fill="#323738"/>
</g>
<defs>
<clipPath id="clip0_6_2">
<rect width="144" height="120" fill="white"/>
</clipPath>
</defs>
</svg>
