<?xml version="1.0" standalone="no"?>
<!DOCTYPE svg PUBLIC "-//W3C//DTD SVG 20010904//EN"
 "http://www.w3.org/TR/2001/REC-SVG-20010904/DTD/svg10.dtd">
<svg version="1.0" xmlns="http://www.w3.org/2000/svg"
 width="122.000000pt" height="27.000000pt" viewBox="0 0 122.000000 27.000000"
 preserveAspectRatio="xMidYMid meet">

<g transform="translate(0.000000,27.000000) scale(0.100000,-0.100000)"
fill="#417ED8" stroke="none">
<path d="M74 256 c-69 -30 -97 -126 -55 -190 27 -40 57 -55 112 -56 136 -1
178 185 55 241 -48 22 -70 23 -112 5z m103 -68 c43 -40 21 -109 -39 -124 -40
-9 -93 44 -84 84 14 59 80 81 123 40z"/>
<path d="M669 254 c-56 -17 -109 -72 -109 -112 0 -15 9 -42 20 -60 57 -92 258
-97 328 -7 51 64 6 151 -91 180 -61 18 -88 18 -148 -1z m169 -71 c107 -79 -85
-166 -195 -88 -42 29 -24 79 37 104 38 16 127 7 158 -16z"/>
<path d="M317 253 c-4 -3 -7 -14 -7 -24 0 -19 18 -26 78 -31 l34 -3 -66 -85
c-36 -47 -66 -88 -66 -92 0 -5 51 -8 114 -8 89 0 116 3 126 15 22 26 -5 44
-71 47 l-59 3 61 80 c34 44 66 86 72 93 7 9 -14 12 -100 12 -60 0 -113 -3
-116 -7z"/>
<path d="M980 146 c0 -89 3 -116 15 -126 26 -22 45 5 45 66 0 30 3 54 8 54 4
0 43 -29 87 -65 l80 -64 3 116 c3 117 -3 141 -32 130 -12 -5 -16 -21 -16 -67
0 -33 -3 -60 -7 -60 -5 0 -44 30 -88 65 -44 36 -83 65 -87 65 -5 0 -8 -51 -8
-114z"/>
</g>
</svg>
