<svg version="1.1" id="Layer_1" xmlns="http://www.w3.org/2000/svg" xmlns:xlink="http://www.w3.org/1999/xlink" x="0px" y="0px"
	 width="100%" viewBox="0 0 800 230" enable-background="new 0 0 800 230" xml:space="preserve">
<path fill="none" opacity="1.000000" stroke="none"
	d="
M81.000000,1.000000 
	C306.689301,1.000000 532.378601,1.000000 758.871704,1.246101 
	C758.917725,2.074625 758.214111,2.750706 757.393921,3.225328 
	C746.081665,9.771812 739.744324,18.866190 739.809509,32.629265 
	C739.867249,44.818115 748.556458,59.078209 763.980042,62.404236 
	C775.790588,64.951134 789.095459,61.636047 797.120728,49.642746 
	C798.081909,48.206367 799.691101,47.203678 801.000000,46.000000 
	C801.000000,66.689308 801.000000,87.378609 800.739136,108.873512 
	C799.639709,108.154320 798.716187,106.669502 797.976685,105.098099 
	C793.950439,96.542679 788.619141,88.979134 781.179565,83.043526 
	C768.276001,72.748634 753.442444,68.422630 737.026001,68.547211 
	C732.789185,50.962040 723.828674,37.104595 708.397705,27.953566 
	C696.585999,20.948895 683.923279,17.574812 670.054443,19.585091 
	C665.181030,10.468597 652.897888,10.571025 646.884644,14.404373 
	C640.100342,18.729233 639.783997,25.111671 639.635010,32.056046 
	C636.540894,34.851341 633.753113,37.511181 630.653076,40.006645 
	C628.758911,38.258377 627.229248,36.617867 625.586731,35.099457 
	C610.860962,21.486441 593.258301,16.555052 573.927185,20.270433 
	C554.249756,24.052366 539.446594,35.270321 530.648621,53.728226 
	C529.744873,55.624283 528.415710,57.317520 526.888062,59.009247 
	C524.807434,58.325489 522.994812,57.966774 521.458923,57.111324 
	C512.636230,52.197575 503.146210,50.017658 492.933533,49.567467 
	C476.625183,41.384933 459.882233,37.318954 441.682983,38.850151 
	C424.935944,40.259167 409.917664,45.668304 395.954163,54.616447 
	C393.424347,51.512444 391.297546,48.442825 388.608551,45.989365 
	C381.149536,39.183655 372.187286,37.199169 362.423462,39.040546 
	C351.286133,41.140957 339.898621,49.635773 337.537231,62.786827 
	C313.533081,53.476894 291.870087,57.095093 271.940796,72.559250 
	C270.228394,71.064552 268.737457,69.787880 267.133057,68.674759 
	C252.844788,58.761696 237.074905,55.950706 219.959229,58.609238 
	C215.704788,46.955544 208.298233,38.032097 198.777817,31.051159 
	C185.946854,21.642706 171.602783,17.707125 155.495895,19.881069 
	C142.753601,21.600891 131.876022,26.580954 122.365921,35.087093 
	C114.091331,42.488155 108.640427,51.631092 104.593811,61.823105 
	C100.470245,58.764641 96.655800,55.818169 92.996880,52.566456 
	C106.902603,37.294678 101.276581,11.648623 83.168274,3.550636 
	C82.249115,3.139596 81.713951,1.869904 81.000000,1.000000 
M338.329376,13.879038 
	C326.619812,7.762787 312.546661,15.997688 313.877808,28.645378 
	C314.630554,35.797218 319.732269,42.452774 327.103729,43.905846 
	C333.900665,45.245674 342.660828,40.568996 345.015320,34.343655 
	C347.905334,26.702345 345.401886,18.485081 338.329376,13.879038 
z"/>
<path fill="none" opacity="1.000000" stroke="none"
	d="
M540.000000,231.000000 
	C360.454346,231.000000 180.908707,231.000000 1.000000,231.000000 
	C1.000000,195.312729 1.000000,159.624222 1.364714,123.354820 
	C2.091821,123.097603 2.635949,123.351662 2.790451,123.754967 
	C9.285900,140.710648 21.194462,152.261353 37.945801,159.450226 
	C36.111633,167.798157 37.581871,175.390259 41.774769,182.049835 
	C47.953239,191.863068 56.877216,197.447113 68.973297,197.052612 
	C71.885399,196.957642 74.901222,196.094574 77.277504,199.575485 
	C80.508965,204.309097 84.146866,208.977921 88.429108,212.743576 
	C104.363808,226.756027 122.882790,231.343857 143.526855,226.122772 
	C162.473022,221.331131 175.659119,209.468216 184.477020,192.019455 
	C190.904083,192.349197 196.919739,192.691132 202.962799,193.435928 
	C204.282501,197.670197 204.944000,201.880554 206.978088,205.266312 
	C215.072983,218.740372 231.732727,224.348953 249.031311,217.380646 
	C251.823059,223.649612 256.231415,227.268723 262.803741,227.996872 
	C272.304382,229.049423 282.157013,222.090424 281.523499,209.028503 
	C297.239990,209.599701 311.034210,205.570938 323.399658,196.116135 
	C324.504974,196.829727 325.210205,197.567947 326.069946,197.995209 
	C345.336761,207.569931 364.623413,207.565460 384.076782,198.337936 
	C386.480377,200.570114 388.625153,202.618271 390.967743,204.407394 
	C412.949768,221.196075 437.711273,227.184128 464.919586,222.932022 
	C475.421936,221.290710 485.649689,218.315857 494.453400,212.103455 
	C502.179565,206.651413 509.491821,200.612793 517.288452,194.969681 
	C518.700684,195.768021 519.811340,196.429916 520.952271,197.539886 
	C520.302917,212.106232 526.496033,222.265244 538.747559,228.994904 
	C539.350342,229.325974 539.590820,230.316544 540.000000,231.000000 
z"/>
<path fill="none" opacity="1.000000" stroke="none"
	d="
M801.000000,150.000000 
	C801.000000,176.962692 801.000000,203.925385 801.000000,231.000000 
	C722.645813,231.000000 644.291565,231.000000 565.278076,230.665329 
	C574.270813,224.784119 581.470642,217.276840 584.432983,206.034470 
	C594.579102,208.629776 604.379822,210.435272 614.452393,207.993484 
	C619.638306,206.736328 624.805481,205.401733 630.123535,204.408966 
	C635.719910,211.908432 641.665771,213.897751 648.700012,212.255325 
	C655.959717,210.560242 661.541626,203.329956 661.446594,195.189667 
	C670.740417,195.620651 679.710144,196.511169 688.604004,196.022125 
	C699.067688,195.446777 707.666199,189.677078 716.403137,183.916290 
	C727.744141,188.633575 738.858704,191.300323 751.003296,189.102585 
	C773.198853,185.085968 789.252014,173.583511 798.181824,152.590958 
	C798.636902,151.521286 800.038879,150.854416 801.000000,150.000000 
z"/>
<path fill="#7D2671" opacity="1.000000" stroke="none" 
	d="
M37.911865,159.031982 
	C21.194462,152.261353 9.285900,140.710648 2.790451,123.754967 
	C2.635949,123.351662 2.091821,123.097603 1.364714,122.886963 
	C1.000000,109.645775 1.000000,96.291542 1.361180,82.589012 
	C2.394009,81.337700 3.111745,80.465050 3.729889,79.526794 
	C8.038267,72.987274 11.297786,65.317451 16.885063,60.172874 
	C23.611313,53.979580 32.310490,49.928993 40.445099,45.113243 
	C41.664581,46.435181 42.654408,47.552017 43.515385,48.760635 
	C54.398972,64.038742 73.754463,66.853203 88.650635,55.351250 
	C89.925591,54.366798 91.438820,53.690926 92.841362,52.871700 
	C96.655800,55.818169 100.470245,58.764641 104.643951,62.267086 
	C105.017754,63.816959 105.209244,64.845894 105.020432,65.799538 
	C101.865364,81.734833 104.232971,96.792747 111.693947,111.029526 
	C109.228340,111.379196 107.157883,111.698502 104.919952,111.672523 
	C103.423561,106.514153 102.205200,101.667191 100.743088,96.894913 
	C97.538895,86.436501 100.536545,88.772659 89.321709,88.163063 
	C84.741989,87.914131 83.057991,89.464546 82.022598,93.815041 
	C78.308136,109.422592 74.150230,124.924522 70.177147,140.470779 
	C69.896278,141.569809 69.754730,142.704437 69.548401,143.822525 
	C67.438393,141.594894 67.181686,141.175842 67.062408,140.720779 
	C62.845539,124.633888 58.698338,108.528221 54.346146,92.478127 
	C53.920582,90.908699 52.369358,88.630211 51.125694,88.481789 
	C46.924789,87.980423 42.627010,88.290741 37.894836,88.290741 
	C42.677650,106.324234 47.273266,123.651909 51.545189,141.067230 
	C47.758984,145.441803 44.237885,149.683380 40.865871,154.040344 
	C39.691666,155.557526 38.885899,157.359863 37.911865,159.031982 
z"/>
<path fill="#EC238C" opacity="1.000000" stroke="none" 
	d="
M801.000000,149.531342 
	C800.038879,150.854416 798.636902,151.521286 798.181824,152.590958 
	C789.252014,173.583511 773.198853,185.085968 751.003296,189.102585 
	C738.858704,191.300323 727.744141,188.633575 716.245850,183.624329 
	C714.232178,182.213745 712.665222,181.270096 711.281494,180.108292 
	C707.129761,176.622345 703.049438,173.051208 699.382385,169.450363 
	C701.596375,169.304413 703.369263,169.221420 705.297729,169.131119 
	C705.297729,164.857788 705.297729,161.093491 705.297729,156.527359 
	C699.737854,156.527359 694.456909,156.527359 689.050903,156.201416 
	C687.232483,150.243637 685.539124,144.611816 684.241089,138.896118 
	C689.096313,137.552048 693.556152,136.291824 698.369263,134.958893 
	C704.872925,131.220840 711.023376,127.555511 717.447388,124.081192 
	C721.138306,129.300262 726.367981,131.414978 731.897705,132.952362 
	C738.315735,134.736694 744.814514,136.239410 751.201538,138.124298 
	C756.876892,139.799164 759.416565,143.133774 759.351562,148.082870 
	C759.291931,152.621780 756.054260,156.303680 750.763916,157.848831 
	C738.992371,161.286926 729.240479,157.512756 723.081238,146.874557 
	C718.741699,147.831726 714.293457,148.812836 708.382080,150.116684 
	C711.739258,154.856659 713.848572,159.146149 717.111023,162.206100 
	C729.037415,173.392090 755.066956,173.447113 767.308228,162.713959 
	C780.058105,151.534851 776.792175,130.868210 761.139832,124.452881 
	C757.312256,122.884087 753.175171,122.075218 749.190369,120.883812 
	C744.098328,119.361351 738.745605,118.376915 733.995117,116.126404 
	C727.281311,112.945793 727.378540,104.843330 733.742554,100.970398 
	C740.823120,96.661407 751.763428,98.893715 756.657349,105.495354 
	C757.381409,106.472145 758.964966,107.629181 759.936401,107.461342 
	C763.796082,106.794411 767.570740,105.635231 771.665649,104.584290 
	C769.759033,97.788872 765.558289,93.817429 760.024353,90.972374 
	C752.475220,87.091255 744.375977,86.734673 736.200256,86.791679 
	C736.481812,83.604355 736.783691,80.841232 736.909790,78.070114 
	C737.048218,75.029503 737.024475,71.981506 737.071350,68.936729 
	C753.442444,68.422630 768.276001,72.748634 781.179565,83.043526 
	C788.619141,88.979134 793.950439,96.542679 797.976685,105.098099 
	C798.716187,106.669502 799.639709,108.154320 800.739136,109.339554 
	C801.000000,122.354225 801.000000,135.708450 801.000000,149.531342 
z"/>
<path fill="#EC208B" opacity="1.000000" stroke="none" 
	d="
M801.000000,45.531342 
	C799.691101,47.203678 798.081909,48.206367 797.120728,49.642746 
	C789.095459,61.636047 775.790588,64.951134 763.980042,62.404236 
	C748.556458,59.078209 739.867249,44.818115 739.809509,32.629265 
	C739.744324,18.866190 746.081665,9.771812 757.393921,3.225328 
	C758.214111,2.750706 758.917725,2.074625 759.337769,1.246101 
	C766.687561,1.000000 774.375183,1.000000 782.193237,1.261337 
	C789.343018,5.515843 796.124878,9.773134 800.014893,17.289751 
	C800.044861,17.347586 800.658752,17.103252 801.000000,16.999996 
	C801.000000,26.354229 801.000000,35.708458 801.000000,45.531342 
z"/>
<path fill="#EC208B" opacity="1.000000" stroke="none" 
	d="
M92.996880,52.566456 
	C91.438820,53.690926 89.925591,54.366798 88.650635,55.351250 
	C73.754463,66.853203 54.398972,64.038742 43.515385,48.760635 
	C42.654408,47.552017 41.664581,46.435181 40.366745,44.724125 
	C39.001633,39.955711 36.961437,35.677608 37.204823,31.533625 
	C37.905430,19.604553 42.800148,9.774035 53.980640,3.946625 
	C55.174664,3.324286 56.002365,1.999124 57.000000,1.000001 
	C64.687576,1.000000 72.375153,1.000000 80.531364,1.000000 
	C81.713951,1.869904 82.249115,3.139596 83.168274,3.550636 
	C101.276581,11.648623 106.902603,37.294678 92.996880,52.566456 
z"/>
<path fill="#8E2880" opacity="1.000000" stroke="none" 
	d="
M584.027405,206.057053 
	C581.470642,217.276840 574.270813,224.784119 564.809387,230.665329 
	C556.979065,231.000000 548.958191,231.000000 540.468628,231.000000 
	C539.590820,230.316544 539.350342,229.325974 538.747559,228.994904 
	C526.496033,222.265244 520.302917,212.106232 521.383789,197.459167 
	C537.890442,196.255447 544.427063,187.132736 539.296631,172.797272 
	C545.458557,171.765671 551.284058,170.896866 557.482422,170.071014 
	C561.199097,171.117355 564.542847,172.120743 568.085266,173.392380 
	C578.157532,180.833939 583.791016,190.155289 583.160461,202.729462 
	C583.105652,203.821426 583.722473,204.947067 584.027405,206.057053 
z"/>
<path fill="none" opacity="1.000000" stroke="none"
	d="
M56.531342,1.000001 
	C56.002365,1.999124 55.174664,3.324286 53.980640,3.946625 
	C42.800148,9.774035 37.905430,19.604553 37.204823,31.533625 
	C36.961437,35.677608 39.001633,39.955711 40.077202,44.561676 
	C32.310490,49.928993 23.611313,53.979580 16.885063,60.172874 
	C11.297786,65.317451 8.038267,72.987274 3.729889,79.526794 
	C3.111745,80.465050 2.394009,81.337700 1.361180,82.120354 
	C1.000000,55.086498 1.000000,28.172993 1.000000,1.000000 
	C19.353413,1.000000 37.708050,1.000000 56.531342,1.000001 
z"/>
<path fill="none" opacity="1.000000" stroke="none"
	d="
M801.000000,16.528797 
	C800.658752,17.103252 800.044861,17.347586 800.014893,17.289751 
	C796.124878,9.773134 789.343018,5.515843 782.661865,1.261337 
	C788.920776,1.000000 794.841492,1.000000 801.000000,1.000000 
	C801.000000,6.016728 801.000000,11.037166 801.000000,16.528797 
z"/>
<path fill="#EC228C" opacity="1.000000" stroke="none" 
	d="
M112.089096,110.999176 
	C104.232971,96.792747 101.865364,81.734833 105.020432,65.799538 
	C105.209244,64.845894 105.017754,63.816959 104.953087,62.379078 
	C108.640427,51.631092 114.091331,42.488155 122.365921,35.087093 
	C131.876022,26.580954 142.753601,21.600891 155.495895,19.881069 
	C171.602783,17.707125 185.946854,21.642706 198.777817,31.051159 
	C208.298233,38.032097 215.704788,46.955544 219.912598,59.028378 
	C220.431000,62.231251 220.830566,64.682304 221.262466,67.127655 
	C225.350189,90.272743 219.223801,109.830437 200.811081,124.641052 
	C200.687103,113.534302 200.748550,102.897209 200.532578,92.265762 
	C200.505402,90.928581 199.120209,88.571442 198.188431,88.480095 
	C193.979340,88.067451 189.707031,88.299805 185.312775,88.299805 
	C185.312775,115.643188 185.312775,142.192123 185.312775,169.696869 
	C198.745224,169.696869 211.989410,169.696869 225.175568,170.088333 
	C222.494797,179.928452 216.528427,186.415070 207.630188,190.366272 
	C205.993301,191.093124 204.496735,192.136032 202.935410,193.033066 
	C196.919739,192.691132 190.904083,192.349197 184.361115,191.696671 
	C182.691879,190.493530 181.622955,189.482162 180.395981,188.727951 
	C173.061752,184.219589 168.079468,177.974319 166.380371,169.265823 
	C167.074356,162.304153 167.380707,155.617386 167.870407,148.689148 
	C170.367416,145.186676 172.681061,141.925659 175.425888,138.056915 
	C172.423889,138.375122 170.056580,138.626053 167.587219,138.427307 
	C167.461792,123.005157 167.467407,108.032539 167.379303,93.060463 
	C167.367935,91.130135 168.334976,88.352753 164.748978,88.320374 
	C160.964340,88.286201 157.179123,88.312706 152.579132,88.312706 
	C152.579132,105.271912 152.579132,121.686043 152.206711,138.063690 
	C145.154327,135.532715 138.474380,133.038223 131.790939,130.172089 
	C135.353378,116.222969 138.919296,102.645493 142.694153,88.272507 
	C139.946014,88.272507 137.974503,88.514862 136.084564,88.225174 
	C131.222015,87.479858 129.133575,89.425240 128.078278,94.271179 
	C126.105171,103.331749 123.365204,112.225319 120.668175,120.987106 
	C117.624405,117.523621 114.856750,114.261398 112.089096,110.999176 
z"/>
<path fill="#BB3D95" opacity="1.000000" stroke="none" 
	d="
M717.173828,123.890182 
	C711.023376,127.555511 704.872925,131.220840 698.333923,134.615524 
	C697.917847,134.116547 697.890381,133.888245 697.815918,133.224640 
	C697.769043,129.384842 697.769043,125.980347 697.769043,122.056564 
	C687.251465,122.056564 677.671997,122.056564 667.583252,122.056564 
	C667.583252,118.732414 667.583374,115.941071 667.583252,113.149727 
	C667.582581,100.494064 667.582520,100.494072 680.396118,100.494072 
	C688.491028,100.494072 696.585938,100.494064 704.781738,100.494064 
	C704.781738,96.136803 704.781738,92.536606 704.781738,88.603859 
	C687.484558,88.603859 670.451477,88.603859 652.590637,88.603859 
	C652.590637,103.677650 652.590637,118.438942 652.240601,133.165848 
	C646.345886,129.715332 640.801208,126.299202 635.177734,122.434937 
	C635.098816,110.904579 635.098816,99.822357 635.098816,88.263863 
	C631.707153,88.263863 629.022217,88.589279 626.447937,88.193855 
	C621.590576,87.447716 619.768982,89.520531 619.853271,93.785553 
	C615.804626,78.033943 618.039978,63.475853 625.847778,49.694103 
	C627.623657,46.559444 629.263123,43.347431 630.965332,40.171013 
	C633.753113,37.511181 636.540894,34.851341 639.921509,32.244270 
	C641.269836,33.366375 642.074890,34.404457 642.772583,35.510231 
	C646.746582,41.808422 653.362915,44.512478 660.278931,42.632671 
	C666.985291,40.809849 671.222107,34.890297 671.039490,27.283175 
	C670.980530,24.828962 670.431030,22.386528 670.105896,19.938705 
	C683.923279,17.574812 696.585999,20.948895 708.397705,27.953566 
	C723.828674,37.104595 732.789185,50.962040 737.026001,68.547211 
	C737.024475,71.981506 737.048218,75.029503 736.909790,78.070114 
	C736.783691,80.841232 736.481812,83.604355 735.877930,86.981964 
	C716.124329,92.119904 709.393494,105.452240 717.173828,123.890182 
z"/>
<path fill="#EC228C" opacity="1.000000" stroke="none" 
	d="
M383.909698,198.033768 
	C364.623413,207.565460 345.336761,207.569931 326.069946,197.995209 
	C325.210205,197.567947 324.504974,196.829727 323.243713,195.813660 
	C313.845490,188.362778 305.883453,180.549210 300.837311,170.111954 
	C300.332642,169.068069 297.910065,168.409546 296.422424,168.482742 
	C291.652771,168.717484 286.904144,169.380035 281.994781,169.629105 
	C281.731232,169.220779 281.620331,169.060867 281.841187,168.694427 
	C292.478729,166.358871 300.351288,160.854858 305.940094,151.872833 
	C316.778717,134.453552 314.553101,98.944557 285.736389,89.231033 
	C292.214081,90.675102 299.410797,90.624321 304.109650,94.024956 
	C311.906342,99.667557 318.104279,100.311806 325.085205,94.182114 
	C325.185516,119.412682 325.185516,144.156921 325.185516,169.312546 
	C337.771301,169.312546 349.569366,169.383972 361.365479,169.262604 
	C364.334808,169.232071 367.378021,168.897415 370.248871,168.162140 
	C379.500549,165.792618 385.321899,158.303604 385.845276,148.519043 
	C386.349274,139.096298 381.707275,131.967590 372.693359,128.310760 
	C372.080017,128.061935 371.483765,127.770973 371.802307,127.914040 
	C375.120514,124.335182 379.244385,121.377800 381.325684,117.361839 
	C387.460175,105.524918 379.523132,90.769928 366.096039,89.151062 
	C357.045502,88.059875 347.830109,88.335854 338.959351,87.797455 
	C339.881104,86.553009 341.347656,85.071648 341.059082,84.536339 
	C337.363007,77.679665 337.797119,70.285439 337.873474,62.921616 
	C339.898621,49.635773 351.286133,41.140957 362.423462,39.040546 
	C372.187286,37.199169 381.149536,39.183655 388.608551,45.989365 
	C391.297546,48.442825 393.424347,51.512444 395.955872,55.004005 
	C401.054962,69.214355 400.250183,81.628860 389.503357,92.381454 
	C388.874146,93.011017 389.336578,95.770813 390.198334,96.657364 
	C392.833862,99.368767 395.912415,101.649521 398.904053,104.549515 
	C398.989441,126.275345 398.989441,147.549454 398.989441,169.101562 
	C402.439056,169.257645 405.235077,169.384171 408.030457,169.866119 
	C405.236633,174.788391 403.020050,179.871307 399.508209,183.794907 
	C394.836884,189.013931 389.156555,193.329865 383.909698,198.033768 
z"/>
<path fill="#EC208B" opacity="1.000000" stroke="none" 
	d="
M630.653076,40.006641 
	C629.263123,43.347431 627.623657,46.559444 625.847778,49.694103 
	C618.039978,63.475853 615.804626,78.033943 619.942322,94.234001 
	C620.199463,106.002213 620.145020,116.997162 619.825806,128.126282 
	C618.986694,128.797211 618.412354,129.333954 617.498169,129.970001 
	C609.288635,132.830597 601.418884,135.591904 593.346497,138.052490 
	C592.688599,136.400314 592.233337,135.048874 591.798767,133.759003 
	C592.635498,133.229431 593.042786,132.947433 593.471924,132.703674 
	C603.563660,126.970200 607.690491,118.312256 605.614563,107.217438 
	C603.687378,96.917305 596.607422,89.777771 585.262878,89.063591 
	C571.334229,88.186737 557.320496,88.656235 543.343384,88.576035 
	C543.096497,88.574608 542.847168,88.978584 542.271851,89.476570 
	C542.271851,91.181526 542.277100,93.167664 542.271057,95.153770 
	C542.197937,119.146095 542.123230,143.138428 541.714111,167.033020 
	C538.208191,163.261810 535.036987,159.588318 531.814819,155.535461 
	C528.017517,143.500000 528.759460,132.446487 537.028687,122.892883 
	C539.587036,119.937126 539.790771,118.160561 537.436829,114.996559 
	C526.609131,100.443092 523.637939,84.103180 527.073120,66.410767 
	C527.531372,64.050804 527.232300,61.543789 527.283936,59.104858 
	C528.415710,57.317520 529.744873,55.624283 530.648621,53.728226 
	C539.446594,35.270321 554.249756,24.052366 573.927185,20.270433 
	C593.258301,16.555052 610.860962,21.486441 625.586731,35.099457 
	C627.229248,36.617867 628.758911,38.258377 630.653076,40.006641 
z"/>
<path fill="#7D2671" opacity="1.000000" stroke="none" 
	d="
M526.888062,59.009254 
	C527.232300,61.543789 527.531372,64.050804 527.073120,66.410767 
	C523.637939,84.103180 526.609131,100.443092 537.436829,114.996559 
	C539.790771,118.160561 539.587036,119.937126 537.028687,122.892883 
	C528.759460,132.446487 528.017517,143.500000 531.520020,155.696686 
	C528.877014,157.550659 526.477966,158.864059 523.889771,159.847321 
	C520.324158,151.043015 516.947510,142.568863 513.405273,133.679031 
	C520.000793,130.711090 524.935791,126.485909 526.933228,119.596855 
	C531.408875,104.160515 522.811584,90.307457 506.727692,89.029869 
	C493.003632,87.939735 479.139587,88.609169 465.337250,88.531609 
	C465.086426,88.530205 464.833405,88.920670 464.258667,89.394180 
	C464.258667,91.279800 464.265717,93.428955 464.257568,95.578033 
	C464.173492,117.716118 464.087006,139.854202 463.686584,161.857422 
	C452.082184,155.398483 443.784882,146.410278 439.413086,134.238358 
	C443.046265,134.624039 444.328979,133.336060 443.994202,130.059677 
	C443.749176,127.661728 443.946228,125.218613 443.946228,122.539001 
	C440.329193,122.317200 437.248596,122.128296 434.149414,121.474182 
	C434.147034,114.268715 434.163239,107.528442 434.623169,100.675377 
	C440.284271,100.562576 445.501648,100.562576 450.968323,100.562576 
	C450.968323,96.215103 450.968323,92.524269 450.968323,88.007545 
	C446.472900,88.007545 442.241791,88.007545 438.091034,87.657639 
	C446.577637,68.422081 460.800842,56.583614 481.010712,52.076878 
	C485.012695,51.184437 489.082947,50.597824 493.121704,49.870186 
	C503.146210,50.017658 512.636230,52.197575 521.458923,57.111324 
	C522.994812,57.966774 524.807434,58.325489 526.888062,59.009254 
z"/>
<path fill="#BB3C95" opacity="1.000000" stroke="none" 
	d="
M492.933533,49.567463 
	C489.082947,50.597824 485.012695,51.184437 481.010712,52.076878 
	C460.800842,56.583614 446.577637,68.422081 437.629730,87.754684 
	C424.512451,88.201630 411.936829,88.201630 398.818665,88.201630 
	C398.818665,94.138611 398.818665,99.118195 398.818665,104.097786 
	C395.912415,101.649521 392.833862,99.368767 390.198334,96.657364 
	C389.336578,95.770813 388.874146,93.011017 389.503357,92.381454 
	C400.250183,81.628860 401.054962,69.214355 396.102295,55.319569 
	C409.917664,45.668304 424.935944,40.259167 441.682983,38.850151 
	C459.882233,37.318954 476.625183,41.384933 492.933533,49.567463 
z"/>
<path fill="#BB3C95" opacity="1.000000" stroke="none" 
	d="
M200.911377,125.112457 
	C219.223801,109.830437 225.350189,90.272743 221.262466,67.127655 
	C220.830566,64.682304 220.431000,62.231251 220.063080,59.363701 
	C237.074905,55.950706 252.844788,58.761696 267.133057,68.674759 
	C268.737457,69.787880 270.228394,71.064552 271.874512,72.909500 
	C268.600616,78.389137 265.224182,83.224640 261.403564,88.151268 
	C256.967651,88.249352 252.971329,88.376770 248.985947,88.222176 
	C246.194626,88.113892 245.132599,89.133987 245.195984,91.962105 
	C245.300140,96.608528 245.096344,101.261856 244.730988,106.087341 
	C242.611771,108.187347 240.638077,109.994972 238.980103,112.056511 
	C229.101028,124.340210 225.913727,138.718796 225.797882,153.817108 
	C221.139389,142.027893 213.597458,134.065979 200.824356,131.549484 
	C200.787659,129.121719 200.849518,127.117088 200.911377,125.112457 
z"/>
<path fill="#7D2570" opacity="1.000000" stroke="none" 
	d="
M261.847778,88.060150 
	C265.224182,83.224640 268.600616,78.389137 272.043335,73.203384 
	C291.870087,57.095093 313.533081,53.476894 337.537231,62.786827 
	C337.797119,70.285439 337.363007,77.679665 341.059082,84.536339 
	C341.347656,85.071648 339.881104,86.553009 338.535034,87.873322 
	C333.797394,88.151970 329.754974,88.151970 325.640869,88.151970 
	C325.364166,90.490601 325.174561,92.093185 324.984924,93.695770 
	C318.104279,100.311806 311.906342,99.667557 304.109650,94.024956 
	C299.410797,90.624321 292.214081,90.675102 285.269714,89.197586 
	C276.882324,88.833527 269.365051,88.446838 261.847778,88.060150 
z"/>
<path fill="#7C2570" opacity="1.000000" stroke="none" 
	d="
M338.629913,14.124895 
	C345.401886,18.485081 347.905334,26.702345 345.015320,34.343655 
	C342.660828,40.568996 333.900665,45.245674 327.103729,43.905846 
	C319.732269,42.452774 314.630554,35.797218 313.877808,28.645378 
	C312.546661,15.997688 326.619812,7.762787 338.629913,14.124895 
z"/>
<path fill="#EC208B" opacity="1.000000" stroke="none" 
	d="
M670.054443,19.585091 
	C670.431030,22.386528 670.980530,24.828962 671.039490,27.283175 
	C671.222107,34.890297 666.985291,40.809849 660.278931,42.632671 
	C653.362915,44.512478 646.746582,41.808422 642.772583,35.510231 
	C642.074890,34.404457 641.269836,33.366375 640.227905,32.108810 
	C639.783997,25.111671 640.100342,18.729233 646.884644,14.404373 
	C652.897888,10.571025 665.181030,10.468597 670.054443,19.585091 
z"/>
<path fill="#8F2981" opacity="1.000000" stroke="none" 
	d="
M131.794403,130.543732 
	C138.474380,133.038223 145.154327,135.532715 152.298813,138.514877 
	C152.763336,149.030746 152.763336,159.058929 152.763336,169.540710 
	C157.736938,169.540710 161.864853,169.540710 165.992752,169.540710 
	C168.079468,177.974319 173.061752,184.219589 180.395981,188.727951 
	C181.622955,189.482162 182.691879,190.493530 183.949738,191.708862 
	C175.659119,209.468216 162.473022,221.331131 143.526855,226.122772 
	C122.882790,231.343857 104.363808,226.756027 88.429108,212.743576 
	C84.146866,208.977921 80.508965,204.309097 77.277504,199.575485 
	C74.901222,196.094574 71.885399,196.957642 68.973297,197.052612 
	C56.877216,197.447113 47.953239,191.863068 41.774769,182.049835 
	C37.581871,175.390259 36.111633,167.798157 37.945801,159.450226 
	C38.885899,157.359863 39.691666,155.557526 40.865871,154.040344 
	C44.237885,149.683380 47.758984,145.441803 51.730751,141.405624 
	C53.875259,147.570129 55.528934,153.478867 57.141628,159.398788 
	C59.878834,169.446594 59.870163,169.296844 70.461571,169.448303 
	C73.900642,169.497482 75.344460,168.562164 76.153320,165.086060 
	C79.272270,151.682251 82.759987,138.364227 86.451912,124.915092 
	C88.736801,123.794601 90.680031,122.773262 92.781494,122.077118 
	C96.265182,134.608566 99.605118,146.810883 102.911659,159.022247 
	C105.732475,169.439789 105.719276,169.252243 116.465340,169.463547 
	C120.259079,169.538147 121.540848,168.192093 122.428909,164.696396 
	C125.334930,153.257339 128.641708,141.920120 131.794403,130.543732 
z"/>
<path fill="#BC3D96" opacity="1.000000" stroke="none" 
	d="
M438.974518,134.317795 
	C443.784882,146.410278 452.082184,155.398483 463.784149,162.276947 
	C464.294830,164.881683 464.393311,166.932022 464.519806,169.565002 
	C469.768860,169.315262 474.463623,169.091888 479.594727,168.861450 
	C490.413422,170.735413 500.693176,169.530624 511.220154,168.022308 
	C512.656189,168.715927 513.828369,169.212967 514.838379,170.027512 
	C511.616791,174.187698 508.859314,178.477219 510.563171,183.414200 
	C511.964874,187.475769 514.791687,191.045532 516.986877,194.833252 
	C509.491821,200.612793 502.179565,206.651413 494.453400,212.103455 
	C485.649689,218.315857 475.421936,221.290710 464.919586,222.932022 
	C437.711273,227.184128 412.949768,221.196075 390.967743,204.407394 
	C388.625153,202.618271 386.480377,200.570114 384.076782,198.337936 
	C389.156555,193.329865 394.836884,189.013931 399.508209,183.794907 
	C403.020050,179.871307 405.236633,174.788391 408.492432,169.801086 
	C423.037292,169.380630 437.119537,169.380630 451.452454,169.380630 
	C451.452454,164.874039 451.452454,161.012573 451.452454,156.626480 
	C438.834106,156.626480 426.597656,156.626480 414.230164,156.626480 
	C414.230164,148.909241 414.230164,141.725357 414.230164,134.317795 
	C422.754852,134.317795 430.864685,134.317795 438.974518,134.317795 
z"/>
<path fill="#8F2A81" opacity="1.000000" stroke="none" 
	d="
M202.962799,193.435928 
	C204.496735,192.136032 205.993301,191.093124 207.630188,190.366272 
	C216.528427,186.415070 222.494797,179.928452 225.537903,169.965851 
	C228.843903,169.451904 231.729523,169.451904 235.253250,169.451904 
	C235.253250,165.136368 235.253250,161.563324 235.631485,158.024811 
	C239.007523,158.707352 242.005341,159.355362 245.104370,160.446976 
	C245.205597,163.492813 245.205597,166.095047 245.205597,169.647629 
	C250.148712,169.647629 254.540482,169.647629 259.014038,170.014648 
	C263.809448,178.512970 266.282623,187.067291 263.635895,196.612106 
	C253.846481,198.451126 249.303787,204.051651 249.388443,213.686996 
	C249.398315,214.809906 249.054993,215.935898 248.875412,217.060471 
	C231.732727,224.348953 215.072983,218.740372 206.978088,205.266312 
	C204.944000,201.880554 204.282501,197.670197 202.962799,193.435928 
z"/>
<path fill="#7D2570" opacity="1.000000" stroke="none" 
	d="
M264.030273,196.513916 
	C266.282623,187.067291 263.809448,178.512970 259.413696,169.900406 
	C266.148621,169.344070 272.565643,169.269012 279.265869,169.365646 
	C280.415192,169.650726 281.281281,169.764114 282.147400,169.877502 
	C286.904144,169.380035 291.652771,168.717484 296.422424,168.482742 
	C297.910065,168.409546 300.332642,169.068069 300.837311,170.111954 
	C305.883453,180.549210 313.845490,188.362778 322.915588,195.693420 
	C311.034210,205.570938 297.239990,209.599701 281.255249,208.809174 
	C277.264038,201.526031 272.443115,196.569962 264.030273,196.513916 
z"/>
<path fill="#EB208B" opacity="1.000000" stroke="none" 
	d="
M263.635895,196.612106 
	C272.443115,196.569962 277.264038,201.526031 280.795532,208.826324 
	C282.157013,222.090424 272.304382,229.049423 262.803741,227.996872 
	C256.231415,227.268723 251.823059,223.649612 249.031311,217.380646 
	C249.054993,215.935898 249.398315,214.809906 249.388443,213.686996 
	C249.303787,204.051651 253.846481,198.451126 263.635895,196.612106 
z"/>
<path fill="#EB208B" opacity="1.000000" stroke="none" 
	d="
M517.288452,194.969681 
	C514.791687,191.045532 511.964874,187.475769 510.563171,183.414200 
	C508.859314,178.477219 511.616791,174.187698 515.273499,169.908264 
	C518.829224,169.431458 521.788513,169.331070 524.745911,169.368515 
	C527.625732,169.404968 526.891541,167.709381 526.847290,166.102661 
	C532.320862,166.410660 535.945496,169.164429 538.960083,172.960083 
	C544.427063,187.132736 537.890442,196.255447 521.353394,197.011108 
	C519.811340,196.429916 518.700684,195.768021 517.288452,194.969681 
z"/>
<path fill="#BB3E96" opacity="1.000000" stroke="none" 
	d="
M593.549072,138.353210 
	C601.418884,135.591904 609.288635,132.830597 617.533691,130.448883 
	C618.649475,137.965424 619.390015,145.102356 620.264221,152.675415 
	C620.397949,158.363754 620.397949,163.615936 620.397949,169.071930 
	C623.418945,169.248627 625.715454,169.382965 628.109253,169.825012 
	C631.471069,174.088684 634.735535,178.044662 637.812134,182.276978 
	C635.026367,186.015793 631.579712,189.153763 630.093567,193.041229 
	C628.859009,196.270584 629.930908,200.381638 629.981079,204.102112 
	C624.805481,205.401733 619.638306,206.736328 614.452393,207.993484 
	C604.379822,210.435272 594.579102,208.629776 584.432983,206.034470 
	C583.722473,204.947067 583.105652,203.821426 583.160461,202.729462 
	C583.791016,190.155289 578.157532,180.833939 568.412476,173.214859 
	C575.858459,170.462418 581.472351,165.817780 586.410400,160.189728 
	C587.374512,162.316162 587.911682,164.283249 588.892883,165.995987 
	C589.623901,167.272034 590.854187,169.060410 591.992493,169.162155 
	C596.213013,169.539383 600.487488,169.312393 605.439453,169.312393 
	C601.266663,158.447708 597.407898,148.400452 593.549072,138.353210 
z"/>
<path fill="#7C2570" opacity="1.000000" stroke="none" 
	d="
M638.000000,182.000610 
	C634.735535,178.044662 631.471069,174.088684 628.565918,169.761887 
	C630.853149,169.391052 632.781128,169.391052 635.256592,169.391052 
	C635.256592,153.439713 635.256592,138.161392 635.256592,122.883072 
	C640.801208,126.299202 646.345886,129.715332 652.340576,133.604492 
	C652.790649,145.760330 652.790649,157.443146 652.790649,169.513306 
	C668.782349,169.513306 683.861816,169.513306 698.941284,169.513306 
	C703.049438,173.051208 707.129761,176.622345 711.281494,180.108292 
	C712.665222,181.270096 714.232178,182.213745 715.872620,183.549088 
	C707.666199,189.677078 699.067688,195.446777 688.604004,196.022125 
	C679.710144,196.511169 670.740417,195.620651 661.221313,194.923233 
	C654.868347,182.384552 651.852783,180.718781 638.000000,182.000610 
z"/>
<path fill="#8E2880" opacity="1.000000" stroke="none" 
	d="
M637.812134,182.276978 
	C651.852783,180.718781 654.868347,182.384552 660.863647,194.772385 
	C661.541626,203.329956 655.959717,210.560242 648.700012,212.255325 
	C641.665771,213.897751 635.719910,211.908432 630.123535,204.408951 
	C629.930908,200.381638 628.859009,196.270584 630.093567,193.041229 
	C631.579712,189.153763 635.026367,186.015793 637.812134,182.276978 
z"/>
<path fill="#FCF9FC" opacity="1.000000" stroke="none" 
	d="
M131.790924,130.172089 
	C128.641708,141.920120 125.334930,153.257339 122.428909,164.696396 
	C121.540848,168.192093 120.259079,169.538147 116.465340,169.463547 
	C105.719276,169.252243 105.732475,169.439789 102.911659,159.022247 
	C99.605118,146.810883 96.265182,134.608566 92.764053,121.672684 
	C91.750557,117.833878 90.912727,114.724701 90.074898,111.615517 
	C89.730698,111.644463 89.386497,111.673409 89.042305,111.702347 
	C88.064957,116.139648 87.087608,120.576942 86.110260,125.014236 
	C82.759987,138.364227 79.272270,151.682251 76.153320,165.086060 
	C75.344460,168.562164 73.900642,169.497482 70.461571,169.448303 
	C59.870163,169.296844 59.878834,169.446594 57.141628,159.398788 
	C55.528934,153.478867 53.875259,147.570129 52.054451,141.317963 
	C47.273266,123.651909 42.677650,106.324234 37.894836,88.290741 
	C42.627010,88.290741 46.924789,87.980423 51.125694,88.481789 
	C52.369358,88.630211 53.920582,90.908699 54.346146,92.478127 
	C58.698338,108.528221 62.845539,124.633888 67.062408,140.720779 
	C67.181686,141.175842 67.438393,141.594894 69.548401,143.822525 
	C69.754730,142.704437 69.896278,141.569809 70.177147,140.470779 
	C74.150230,124.924522 78.308136,109.422592 82.022598,93.815041 
	C83.057991,89.464546 84.741989,87.914131 89.321709,88.163063 
	C100.536545,88.772659 97.538895,86.436501 100.743088,96.894913 
	C102.205200,101.667191 103.423561,106.514153 104.910522,112.059387 
	C108.041107,123.638206 111.013641,134.484879 113.986176,145.331543 
	C114.362343,145.298294 114.738510,145.265045 115.114677,145.231796 
	C117.057877,137.217316 119.001083,129.202850 120.944290,121.188370 
	C123.365204,112.225319 126.105171,103.331749 128.078278,94.271179 
	C129.133575,89.425240 131.222015,87.479858 136.084564,88.225174 
	C137.974503,88.514862 139.946014,88.272507 142.694153,88.272507 
	C138.919296,102.645493 135.353378,116.222969 131.790924,130.172089 
z"/>
<path fill="#922F84" opacity="1.000000" stroke="none" 
	d="
M120.668175,120.987106 
	C119.001083,129.202850 117.057877,137.217316 115.114677,145.231796 
	C114.738510,145.265045 114.362343,145.298294 113.986176,145.331543 
	C111.013641,134.484879 108.041107,123.638206 105.078003,112.404671 
	C107.157883,111.698502 109.228340,111.379196 111.693947,111.029526 
	C114.856750,114.261398 117.624405,117.523621 120.668175,120.987106 
z"/>
<path fill="#FEF9FC" opacity="1.000000" stroke="none" 
	d="
M717.447388,124.081192 
	C709.393494,105.452240 716.124329,92.119904 735.820801,87.402641 
	C744.375977,86.734673 752.475220,87.091255 760.024353,90.972374 
	C765.558289,93.817429 769.759033,97.788872 771.665649,104.584290 
	C767.570740,105.635231 763.796082,106.794411 759.936401,107.461342 
	C758.964966,107.629181 757.381409,106.472145 756.657349,105.495354 
	C751.763428,98.893715 740.823120,96.661407 733.742554,100.970398 
	C727.378540,104.843330 727.281311,112.945793 733.995117,116.126404 
	C738.745605,118.376915 744.098328,119.361351 749.190369,120.883812 
	C753.175171,122.075218 757.312256,122.884087 761.139832,124.452881 
	C776.792175,130.868210 780.058105,151.534851 767.308228,162.713959 
	C755.066956,173.447113 729.037415,173.392090 717.111023,162.206100 
	C713.848572,159.146149 711.739258,154.856659 708.382080,150.116684 
	C714.293457,148.812836 718.741699,147.831726 723.081238,146.874557 
	C729.240479,157.512756 738.992371,161.286926 750.763916,157.848831 
	C756.054260,156.303680 759.291931,152.621780 759.351562,148.082870 
	C759.416565,143.133774 756.876892,139.799164 751.201538,138.124298 
	C744.814514,136.239410 738.315735,134.736694 731.897705,132.952362 
	C726.367981,131.414978 721.138306,129.300262 717.447388,124.081192 
z"/>
<path fill="#FDFAFC" opacity="1.000000" stroke="none" 
	d="
M699.382385,169.450363 
	C683.861816,169.513306 668.782349,169.513306 652.790649,169.513306 
	C652.790649,157.443146 652.790649,145.760330 652.690674,133.638885 
	C652.590637,118.438942 652.590637,103.677650 652.590637,88.603859 
	C670.451477,88.603859 687.484558,88.603859 704.781738,88.603859 
	C704.781738,92.536606 704.781738,96.136803 704.781738,100.494064 
	C696.585938,100.494064 688.491028,100.494072 680.396118,100.494072 
	C667.582520,100.494072 667.582581,100.494064 667.583252,113.149727 
	C667.583374,115.941071 667.583252,118.732414 667.583252,122.056564 
	C677.671997,122.056564 687.251465,122.056564 697.769043,122.056564 
	C697.769043,125.980347 697.769043,129.384842 697.369751,133.346802 
	C688.531067,133.969070 680.090942,134.123367 671.652771,134.048431 
	C668.827271,134.023346 667.070801,134.563858 667.364136,138.199554 
	C667.128296,144.354828 667.128296,150.156509 667.128296,156.527359 
	C674.649109,156.527359 681.912537,156.527359 689.175964,156.527359 
	C694.456909,156.527359 699.737854,156.527359 705.297729,156.527359 
	C705.297729,161.093491 705.297729,164.857788 705.297729,169.131119 
	C703.369263,169.221420 701.596375,169.304413 699.382385,169.450363 
z"/>
<path fill="#802973" opacity="1.000000" stroke="none" 
	d="
M689.050903,156.201416 
	C681.912537,156.527359 674.649109,156.527359 667.128296,156.527359 
	C667.128296,150.156509 667.128296,144.354828 667.781189,138.356384 
	C673.571289,138.433075 678.708496,138.706528 683.845703,138.979980 
	C685.539124,144.611816 687.232483,150.243637 689.050903,156.201416 
z"/>
<path fill="#BE4599" opacity="1.000000" stroke="none" 
	d="
M684.241089,138.896118 
	C678.708496,138.706528 673.571289,138.433075 668.016968,138.002777 
	C667.070801,134.563858 668.827271,134.023346 671.652771,134.048431 
	C680.090942,134.123367 688.531067,133.969070 697.416626,133.782104 
	C697.890381,133.888245 697.917847,134.116547 697.980713,134.688232 
	C693.556152,136.291824 689.096313,137.552048 684.241089,138.896118 
z"/>
<path fill="#EC238D" opacity="1.000000" stroke="none" 
	d="
M586.174072,159.921204 
	C581.472351,165.817780 575.858459,170.462418 568.213867,172.946609 
	C564.542847,172.120743 561.199097,171.117355 557.431946,169.844650 
	C557.008606,169.575317 556.898743,169.125504 556.952026,168.646118 
	C557.005249,157.606125 557.005249,147.045502 557.005249,136.065369 
	C563.536499,136.065369 569.321228,135.942307 575.091919,136.172195 
	C576.207458,136.216644 577.847351,137.413513 578.260498,138.465576 
	C581.046631,145.559235 583.567383,152.757095 586.174072,159.921204 
z"/>
<path fill="#BF4398" opacity="1.000000" stroke="none" 
	d="
M556.898743,169.125519 
	C556.898743,169.125504 557.008606,169.575317 557.059082,169.801682 
	C551.284058,170.896866 545.458557,171.765671 539.296631,172.797272 
	C535.945496,169.164429 532.320862,166.410660 526.663818,165.841797 
	C525.404663,163.774826 524.741760,161.976151 524.078857,160.177460 
	C526.477966,158.864059 528.877014,157.550659 531.570984,156.076050 
	C535.036987,159.588318 538.208191,163.261810 541.861938,167.411713 
	C547.195923,168.300583 552.047302,168.713043 556.898743,169.125519 
z"/>
<path fill="#FEF7FB" opacity="1.000000" stroke="none" 
	d="
M235.253250,157.990280 
	C235.253250,161.563324 235.253250,165.136368 235.253250,169.451904 
	C231.729523,169.451904 228.843903,169.451904 225.595947,169.574387 
	C211.989410,169.696869 198.745224,169.696869 185.312775,169.696869 
	C185.312775,142.192123 185.312775,115.643188 185.312775,88.299805 
	C189.707031,88.299805 193.979340,88.067451 198.188431,88.480095 
	C199.120209,88.571442 200.505402,90.928581 200.532578,92.265762 
	C200.748550,102.897209 200.687103,113.534302 200.811081,124.641052 
	C200.849518,127.117088 200.787659,129.121719 200.719772,132.010712 
	C200.713760,140.457886 200.713760,148.020691 200.713760,155.734146 
	C209.648636,155.734146 217.901993,155.734146 226.579391,155.833466 
	C229.753372,156.618622 232.503311,157.304459 235.253250,157.990280 
z"/>
<path fill="#FFFEFE" opacity="1.000000" stroke="none" 
	d="
M166.380371,169.265823 
	C161.864853,169.540710 157.736938,169.540710 152.763336,169.540710 
	C152.763336,159.058929 152.763336,149.030746 152.671234,138.551361 
	C152.579132,121.686043 152.579132,105.271912 152.579132,88.312706 
	C157.179123,88.312706 160.964340,88.286201 164.748978,88.320374 
	C168.334976,88.352753 167.367935,91.130135 167.379303,93.060463 
	C167.467407,108.032539 167.461792,123.005157 167.453247,138.874695 
	C167.509872,142.824722 167.598465,145.877655 167.687057,148.930603 
	C167.380707,155.617386 167.074356,162.304153 166.380371,169.265823 
z"/>
<path fill="#A03C8D" opacity="1.000000" stroke="none" 
	d="
M167.870407,148.689148 
	C167.598465,145.877655 167.509872,142.824722 167.555283,139.324371 
	C170.056580,138.626053 172.423889,138.375122 175.425888,138.056915 
	C172.681061,141.925659 170.367416,145.186676 167.870407,148.689148 
z"/>
<path fill="#FDF9FC" opacity="1.000000" stroke="none" 
	d="
M635.177734,122.434937 
	C635.256592,138.161392 635.256592,153.439713 635.256592,169.391052 
	C632.781128,169.391052 630.853149,169.391052 628.468567,169.454163 
	C625.715454,169.382965 623.418945,169.248627 620.397949,169.071930 
	C620.397949,163.615936 620.397949,158.363754 620.355103,152.190002 
	C620.238281,143.509659 620.164429,135.750885 620.090515,127.992111 
	C620.145020,116.997162 620.199463,106.002213 620.164795,94.558815 
	C619.768982,89.520531 621.590576,87.447716 626.447937,88.193855 
	C629.022217,88.589279 631.707153,88.263863 635.098816,88.263863 
	C635.098816,99.822357 635.098816,110.904579 635.177734,122.434937 
z"/>
<path fill="#FEF9FC" opacity="1.000000" stroke="none" 
	d="
M325.085236,94.182114 
	C325.174561,92.093185 325.364166,90.490601 325.640869,88.151970 
	C329.754974,88.151970 333.797394,88.151970 338.264160,88.076103 
	C347.830109,88.335854 357.045502,88.059875 366.096039,89.151062 
	C379.523132,90.769928 387.460175,105.524918 381.325684,117.361839 
	C379.244385,121.377800 375.120514,124.335182 371.802307,127.914040 
	C371.483765,127.770973 372.080017,128.061935 372.693359,128.310760 
	C381.707275,131.967590 386.349274,139.096298 385.845276,148.519043 
	C385.321899,158.303604 379.500549,165.792618 370.248871,168.162140 
	C367.378021,168.897415 364.334808,169.232071 361.365479,169.262604 
	C349.569366,169.383972 337.771301,169.312546 325.185516,169.312546 
	C325.185516,144.156921 325.185516,119.412682 325.085236,94.182114 
M346.593750,133.958969 
	C344.197144,133.958969 341.800537,133.958969 339.450562,133.958969 
	C339.450562,142.113388 339.450562,149.351318 339.450562,157.056320 
	C346.216553,157.056320 352.665588,157.220337 359.102692,157.012878 
	C366.389557,156.778046 370.934631,152.198929 370.912140,145.548050 
	C370.890076,139.021927 366.198547,134.377701 359.029053,134.023605 
	C355.215729,133.835281 351.386475,133.970047 346.593750,133.958969 
M339.119965,108.565788 
	C339.119965,112.988388 339.119965,117.410988 339.119965,122.083290 
	C346.289673,122.083290 352.759735,122.385498 359.187042,121.990913 
	C364.661774,121.654800 368.334595,117.228889 368.724640,111.579956 
	C369.116760,105.901413 366.082031,101.168854 360.217865,100.550468 
	C353.401459,99.831665 346.451080,100.382851 339.119995,100.382851 
	C339.119995,103.013245 339.119995,105.305702 339.119965,108.565788 
z"/>
<path fill="#FDF9FC" opacity="1.000000" stroke="none" 
	d="
M278.982697,169.193954 
	C272.565643,169.269012 266.148621,169.344070 259.331909,169.533386 
	C254.540482,169.647629 250.148712,169.647629 245.205597,169.647629 
	C245.205597,166.095047 245.205597,163.492813 245.203156,159.986984 
	C245.141281,141.359665 245.081833,123.635971 245.022385,105.912270 
	C245.096344,101.261856 245.300140,96.608528 245.195984,91.962105 
	C245.132599,89.133987 246.194626,88.113892 248.985947,88.222176 
	C252.971329,88.376770 256.967651,88.249352 261.403564,88.151260 
	C269.365051,88.446838 276.882324,88.833527 284.866272,89.253662 
	C314.553101,98.944557 316.778717,134.453552 305.940094,151.872833 
	C300.351288,160.854858 292.478729,166.358871 281.529968,168.659164 
	C280.252197,168.951599 279.617462,169.072784 278.982697,169.193954 
M261.904816,157.161850 
	C265.735260,157.192368 269.569000,157.338272 273.395508,157.229950 
	C282.005341,156.986267 288.657654,152.917816 292.226257,145.297134 
	C297.855835,133.275360 297.610199,121.065491 290.784027,109.398949 
	C287.975433,104.598793 283.804779,100.983574 278.199463,100.403450 
	C272.498291,99.813416 266.688507,100.273079 260.725677,100.273079 
	C260.597443,101.693146 260.406860,102.829041 260.405518,103.965164 
	C260.386017,120.292137 260.377319,136.619186 260.420441,152.946060 
	C260.423828,154.231186 260.830750,155.515244 261.904816,157.161850 
z"/>
<path fill="#FDFAFC" opacity="1.000000" stroke="none" 
	d="
M439.413086,134.238358 
	C430.864685,134.317795 422.754852,134.317795 414.230164,134.317795 
	C414.230164,141.725357 414.230164,148.909241 414.230164,156.626480 
	C426.597656,156.626480 438.834106,156.626480 451.452454,156.626480 
	C451.452454,161.012573 451.452454,164.874039 451.452454,169.380630 
	C437.119537,169.380630 423.037292,169.380630 408.493042,169.445648 
	C405.235077,169.384171 402.439056,169.257645 398.989441,169.101562 
	C398.989441,147.549454 398.989441,126.275345 398.904053,104.549515 
	C398.818665,99.118195 398.818665,94.138611 398.818665,88.201630 
	C411.936829,88.201630 424.512451,88.201630 437.549408,88.104584 
	C442.241791,88.007545 446.472900,88.007545 450.968323,88.007545 
	C450.968323,92.524269 450.968323,96.215103 450.968323,100.562576 
	C445.501648,100.562576 440.284271,100.562576 434.157227,100.554703 
	C426.967255,100.546829 420.687042,100.546829 414.115082,100.546829 
	C414.115082,107.896393 414.115082,114.770927 414.115082,121.939392 
	C420.996216,121.939392 427.582123,121.939392 434.167999,121.939392 
	C437.248596,122.128296 440.329193,122.317200 443.946228,122.539001 
	C443.946228,125.218613 443.749176,127.661728 443.994202,130.059677 
	C444.328979,133.336060 443.046265,134.624039 439.413086,134.238358 
z"/>
<path fill="#8F2A81" opacity="1.000000" stroke="none" 
	d="
M279.265869,169.365646 
	C279.617462,169.072784 280.252197,168.951599 281.198181,168.865692 
	C281.620331,169.060867 281.731232,169.220779 281.994781,169.629105 
	C281.281281,169.764114 280.415192,169.650726 279.265869,169.365646 
z"/>
<path fill="#FEF9FC" opacity="1.000000" stroke="none" 
	d="
M556.952026,168.646133 
	C552.047302,168.713043 547.195923,168.300583 542.196655,167.509430 
	C542.123230,143.138428 542.197937,119.146095 542.271057,95.153770 
	C542.277100,93.167664 542.271851,91.181526 542.271851,89.476570 
	C542.847168,88.978584 543.096497,88.574608 543.343384,88.576035 
	C557.320496,88.656235 571.334229,88.186737 585.262878,89.063591 
	C596.607422,89.777771 603.687378,96.917305 605.614563,107.217438 
	C607.690491,118.312256 603.563660,126.970200 593.471924,132.703674 
	C593.042786,132.947433 592.635498,133.229431 591.798767,133.759003 
	C592.233337,135.048874 592.688599,136.400314 593.346497,138.052490 
	C597.407898,148.400452 601.266663,158.447708 605.439453,169.312393 
	C600.487488,169.312393 596.213013,169.539383 591.992493,169.162155 
	C590.854187,169.060410 589.623901,167.272034 588.892883,165.995987 
	C587.911682,164.283249 587.374512,162.316162 586.410400,160.189728 
	C583.567383,152.757095 581.046631,145.559235 578.260498,138.465576 
	C577.847351,137.413513 576.207458,136.216644 575.091919,136.172195 
	C569.321228,135.942307 563.536499,136.065369 557.005249,136.065369 
	C557.005249,147.045502 557.005249,157.606125 556.952026,168.646133 
M582.225647,100.863693 
	C574.014893,100.485199 565.804199,100.106705 557.375366,99.718155 
	C557.375366,108.376389 557.375366,116.075478 557.375366,124.042755 
	C564.826355,124.042755 571.955566,124.348831 579.045532,123.953217 
	C585.607483,123.587059 589.562561,119.829948 590.546631,114.129509 
	C591.548096,108.328186 589.179260,104.234100 582.225647,100.863693 
z"/>
<path fill="#812572" opacity="1.000000" stroke="none" 
	d="
M619.825806,128.126282 
	C620.164429,135.750885 620.238281,143.509659 620.221313,151.753860 
	C619.390015,145.102356 618.649475,137.965424 617.873413,130.349609 
	C618.412354,129.333954 618.986694,128.797211 619.825806,128.126282 
z"/>
<path fill="#FBF9FB" opacity="1.000000" stroke="none" 
	d="
M523.889771,159.847321 
	C524.741760,161.976151 525.404663,163.774826 526.251099,165.834351 
	C526.891541,167.709381 527.625732,169.404968 524.745911,169.368515 
	C521.788513,169.331070 518.829224,169.431458 515.435669,169.590759 
	C513.828369,169.212967 512.656189,168.715927 511.225891,167.664185 
	C507.497742,157.775894 504.097748,148.414978 500.474823,139.141129 
	C499.986969,137.892319 498.417480,136.262741 497.279236,136.206009 
	C491.360840,135.911072 485.419922,136.068634 479.158386,136.068634 
	C479.158386,147.366714 479.158386,158.117615 479.158386,168.868500 
	C474.463623,169.091888 469.768860,169.315262 464.519806,169.565002 
	C464.393311,166.932022 464.294830,164.881683 464.098755,162.411804 
	C464.087006,139.854202 464.173492,117.716118 464.257568,95.578033 
	C464.265717,93.428955 464.258667,91.279800 464.258667,89.394180 
	C464.833405,88.920670 465.086426,88.530205 465.337250,88.531609 
	C479.139587,88.609169 493.003632,87.939735 506.727692,89.029869 
	C522.811584,90.307457 531.408875,104.160515 526.933228,119.596855 
	C524.935791,126.485909 520.000793,130.711090 513.405273,133.679031 
	C516.947510,142.568863 520.324158,151.043015 523.889771,159.847321 
M478.969727,115.461868 
	C478.969727,118.231133 478.969727,121.000397 478.969727,123.940109 
	C486.989899,123.940109 494.451294,124.362564 501.840881,123.815468 
	C508.568573,123.317375 512.513550,118.560822 512.661072,112.278465 
	C512.805176,106.142593 508.870209,101.055489 502.163757,100.485374 
	C494.640961,99.845863 487.021912,100.338409 478.969727,100.338409 
	C478.969727,105.249222 478.969727,109.860779 478.969727,115.461868 
z"/>
<path fill="#BC4398" opacity="1.000000" stroke="none" 
	d="
M434.149414,121.474182 
	C427.582123,121.939392 420.996216,121.939392 414.115082,121.939392 
	C414.115082,114.770927 414.115082,107.896393 414.115082,100.546829 
	C420.687042,100.546829 426.967255,100.546829 433.713440,100.667503 
	C434.163239,107.528442 434.147034,114.268715 434.149414,121.474182 
z"/>
<path fill="#7D2671" opacity="1.000000" stroke="none" 
	d="
M244.730988,106.087341 
	C245.081833,123.635971 245.141281,141.359665 245.101929,159.543365 
	C242.005341,159.355362 239.007523,158.707352 235.631485,158.024811 
	C232.503311,157.304459 229.753372,156.618622 226.575516,155.558655 
	C226.103928,154.822144 226.060257,154.459778 226.016571,154.097427 
	C225.913727,138.718796 229.101028,124.340210 238.980103,112.056511 
	C240.638077,109.994972 242.611771,108.187347 244.730988,106.087341 
z"/>
<path fill="#EC228C" opacity="1.000000" stroke="none" 
	d="
M225.797882,153.817108 
	C226.060257,154.459778 226.103928,154.822144 226.151474,155.459320 
	C217.901993,155.734146 209.648636,155.734146 200.713760,155.734146 
	C200.713760,148.020691 200.713760,140.457886 200.818344,132.433868 
	C213.597458,134.065979 221.139389,142.027893 225.797882,153.817108 
z"/>
<path fill="#88387D" opacity="1.000000" stroke="none" 
	d="
M86.451920,124.915092 
	C87.087608,120.576942 88.064957,116.139648 89.042305,111.702347 
	C89.386497,111.673409 89.730698,111.644463 90.074898,111.615517 
	C90.912727,114.724701 91.750557,117.833878 92.605820,121.347488 
	C90.680031,122.773262 88.736801,123.794601 86.451920,124.915092 
z"/>
<path fill="#7E2872" opacity="1.000000" stroke="none" 
	d="
M479.594727,168.861450 
	C479.158386,158.117615 479.158386,147.366714 479.158386,136.068634 
	C485.419922,136.068634 491.360840,135.911072 497.279236,136.206009 
	C498.417480,136.262741 499.986969,137.892319 500.474823,139.141129 
	C504.097748,148.414978 507.497742,157.775894 510.962006,167.467590 
	C500.693176,169.530624 490.413422,170.735413 479.594727,168.861450 
z"/>
<path fill="#EC258D" opacity="1.000000" stroke="none" 
	d="
M347.079071,133.958969 
	C351.386475,133.970047 355.215729,133.835281 359.029053,134.023605 
	C366.198547,134.377701 370.890076,139.021927 370.912140,145.548050 
	C370.934631,152.198929 366.389557,156.778046 359.102692,157.012878 
	C352.665588,157.220337 346.216553,157.056320 339.450562,157.056320 
	C339.450562,149.351318 339.450562,142.113388 339.450562,133.958969 
	C341.800537,133.958969 344.197144,133.958969 347.079071,133.958969 
z"/>
<path fill="#EC258D" opacity="1.000000" stroke="none" 
	d="
M339.119995,108.081970 
	C339.119995,105.305702 339.119995,103.013245 339.119995,100.382851 
	C346.451080,100.382851 353.401459,99.831665 360.217865,100.550468 
	C366.082031,101.168854 369.116760,105.901413 368.724640,111.579956 
	C368.334595,117.228889 364.661774,121.654800 359.187042,121.990913 
	C352.759735,122.385498 346.289673,122.083290 339.119965,122.083290 
	C339.119965,117.410988 339.119965,112.988388 339.119995,108.081970 
z"/>
<path fill="#EC258E" opacity="1.000000" stroke="none" 
	d="
M261.477478,156.980835 
	C260.830750,155.515244 260.423828,154.231186 260.420441,152.946060 
	C260.377319,136.619186 260.386017,120.292137 260.405518,103.965164 
	C260.406860,102.829041 260.597443,101.693146 260.725677,100.273079 
	C266.688507,100.273079 272.498291,99.813416 278.199463,100.403450 
	C283.804779,100.983574 287.975433,104.598793 290.784027,109.398949 
	C297.610199,121.065491 297.855835,133.275360 292.226257,145.297134 
	C288.657654,152.917816 282.005341,156.986267 273.395508,157.229950 
	C269.569000,157.338272 265.735260,157.192368 261.477478,156.980835 
z"/>
<path fill="#EC248D" opacity="1.000000" stroke="none" 
	d="
M582.613892,100.976974 
	C589.179260,104.234100 591.548096,108.328186 590.546631,114.129509 
	C589.562561,119.829948 585.607483,123.587059 579.045532,123.953217 
	C571.955566,124.348831 564.826355,124.042755 557.375366,124.042755 
	C557.375366,116.075478 557.375366,108.376389 557.375366,99.718155 
	C565.804199,100.106705 574.014893,100.485199 582.613892,100.976974 
z"/>
<path fill="#7E2872" opacity="1.000000" stroke="none" 
	d="
M478.969727,114.967102 
	C478.969727,109.860779 478.969727,105.249222 478.969727,100.338409 
	C487.021912,100.338409 494.640961,99.845863 502.163757,100.485374 
	C508.870209,101.055489 512.805176,106.142593 512.661072,112.278465 
	C512.513550,118.560822 508.568573,123.317375 501.840881,123.815468 
	C494.451294,124.362564 486.989899,123.940109 478.969727,123.940109 
	C478.969727,121.000397 478.969727,118.231133 478.969727,114.967102 
z"/>
</svg>