<svg width="80" height="80" viewBox="0 0 80 80" fill="none" xmlns="http://www.w3.org/2000/svg">
<circle cx="40" cy="40" r="40" fill="#B3BDC9"/>
<g clip-path="url(#clip0_6_190)">
<path d="M47.0355 17L35.3504 24.3839L36.5348 25.0224L46.9308 18.4529L64.5641 28.286L54.4499 34.6773L54.9426 34.9427V35.7529L62.8647 30.7467L64.5274 31.6739L54.9425 37.7306V39.1175L62.7095 34.2094L64.5274 35.2232L54.9425 41.2799V42.6668L62.7095 37.7587L64.5274 38.7725L54.9425 44.8292V46.2161L66.9636 38.6197L63.98 36.9561L66.9635 35.0706L63.9799 33.4068L66.9633 31.5213L64.1349 29.944L67 28.1333L47.0353 17H47.0355ZM50.7688 22.293C48.2407 23.5418 44.8732 23.7531 42.5022 22.8115L37.8672 25.7404L53.1173 33.9591L57.5134 31.1813C55.7818 29.8355 55.926 27.8274 57.867 26.2515L50.7687 22.293H50.7688ZM35.0757 26.6637L26.581 32.1169L42.8774 41.3526L43.0372 41.252C43.3377 41.0615 43.7619 40.7918 44.268 40.4696C45.2799 39.8257 46.619 38.9719 47.9542 38.1201C49.8772 36.8932 50.8681 36.2603 51.7896 35.6719L35.0757 26.6637ZM48.9515 26.8021C48.9516 26.8021 48.9517 26.8021 48.9518 26.8021C49.3362 26.8044 49.6885 26.8855 49.9517 27.0322C50.1048 27.1176 50.2236 27.2229 50.3012 27.3421C50.3789 27.4614 50.4138 27.5922 50.4041 27.7271C50.3944 27.862 50.3402 27.9984 50.2446 28.1285C50.1491 28.2586 50.014 28.3798 49.8471 28.4853C49.6803 28.5907 49.4849 28.6782 49.2722 28.743C49.0595 28.8077 48.8336 28.8483 48.6073 28.8625C48.3811 28.8766 48.159 28.8641 47.9537 28.8256C47.7484 28.787 47.564 28.7232 47.4109 28.6379C47.1017 28.4654 46.939 28.2155 46.9586 27.9431C46.9782 27.6706 47.1785 27.398 47.5154 27.1851C47.7067 27.0641 47.9353 26.9669 48.1839 26.9006C48.4326 26.8343 48.695 26.8006 48.9515 26.8021ZM22.7033 32.3761L10.0367 40.3801L12.8651 41.9574L10 43.7681L12.9836 45.4319L10 47.3174L12.9836 48.9811L10 50.8667L29.9647 62L42.0183 54.3828V52.9962L30.0693 60.547L12.4361 50.7137L14.1492 49.6312L29.9647 58.4506L42.0183 50.8336V49.447L30.0693 56.9978L12.4361 47.1646L14.1492 46.0821L29.9647 54.9014L42.0183 47.2844V45.8979L30.0693 53.4486L12.4361 43.6154L14.0308 42.6074L30.0015 51.5135L42.0183 43.9197V43.3222L41.3598 42.9491L30.1057 50.0605L12.473 40.2273L23.8604 33.0315L22.7032 32.3757L22.7033 32.3761ZM25.162 33.7697L19.5236 37.3325C21.2552 38.6781 21.111 40.6863 19.17 42.2623L26.2683 46.2208C28.7964 44.9719 32.1636 44.7607 34.5345 45.7022L40.0582 42.2117L25.1618 33.7696L25.162 33.7697ZM52.7794 37.578C51.8128 38.1952 50.9603 38.74 49.1307 39.9072C47.7953 40.7594 46.4559 41.6132 45.4426 42.2583C44.9358 42.5807 44.5107 42.851 44.2075 43.0429C44.1967 43.05 44.1922 43.0524 44.1816 43.0591V53.2244L52.7795 47.5353L52.7794 37.578ZM28.6262 39.646C29.0106 39.6484 29.3629 39.7295 29.626 39.8763C29.9352 40.0487 30.0979 40.2987 30.0783 40.5711C30.0587 40.8436 29.8584 41.1162 29.5215 41.3291C29.1846 41.542 28.7387 41.6776 28.2819 41.7062C27.8251 41.7349 27.3948 41.6541 27.0856 41.4817C26.7764 41.3093 26.6137 41.0594 26.6333 40.787C26.653 40.5145 26.8532 40.2418 27.1901 40.0289C27.3815 39.908 27.61 39.8108 27.8587 39.7445C28.1073 39.6782 28.3697 39.6446 28.6262 39.6461V39.646Z" fill="#323738"/>
</g>
<defs>
<clipPath id="clip0_6_190">
<rect width="55" height="45" fill="white" transform="translate(12 17)"/>
</clipPath>
</defs>
</svg>
