<svg width="80" height="80" viewBox="0 0 80 80" fill="none" xmlns="http://www.w3.org/2000/svg">
<circle cx="40" cy="40" r="40" fill="#B3BDC9"/>
<g clip-path="url(#clip0_6_199)">
<path d="M28.9523 14.9721C26.2686 27.6951 31.7099 34.5161 35.4863 39.2481C37.3115 41.5352 38.7856 43.3825 39.0355 45.3794C39.1893 46.4467 38.8995 47.1487 38.566 47.9564C38.331 48.5254 38.0633 49.1739 38.0633 50.0925C38.0633 50.1229 38.2226 50.4109 38.4103 50.7503C39.134 52.0582 40.0956 53.7964 38.8528 56.3148C38.3314 57.3714 37.5996 57.6944 36.8257 58.0359C36.115 58.3494 35.3423 58.6904 35.0714 60.479L34.9286 61.4217H34.099H31.8148L30.6294 64.8205H49.5138L48.3285 61.4217H46.0442H45.2146L45.0718 60.479C44.8009 58.6904 44.0282 58.3494 43.3176 58.0359C42.5436 57.6944 41.8118 57.3714 41.2904 56.3148C40.0476 53.7964 41.0092 52.0582 41.7329 50.7503C41.9206 50.4109 42.08 50.1229 42.08 50.0925C42.08 49.1739 41.8122 48.5254 41.5772 47.9564C41.2437 47.1487 40.9538 46.4467 41.1076 45.3794C41.3574 43.3825 42.8317 41.5352 44.6569 39.2481C48.4333 34.5161 53.8746 27.6951 51.1909 14.9721H28.9523ZM34.0354 40.7704C29.8773 35.5601 23.8442 28.0003 27.2323 13.5471L27.4294 12.7062H28.1854H51.9578H52.7137L52.9109 13.5471C56.299 28.0003 50.2659 35.5601 46.1077 40.7704C44.5049 42.7788 43.2119 44.399 43.0562 45.7112L43.0523 45.7422C42.9984 46.1163 43.1665 46.5233 43.3599 46.9917C43.685 47.7791 44.0555 48.6763 44.0555 50.0925C44.0555 50.7775 43.7545 51.3215 43.3997 51.9628C42.9473 52.7806 42.3461 53.8673 43.0035 55.1996C43.181 55.5592 43.5886 55.7392 44.0198 55.9294C45.0969 56.4047 46.2574 56.9171 46.8283 59.1558H48.9944H49.6604L49.9089 59.8683L51.8845 65.533L52.4263 67.0864H50.97H29.1731H27.7169L28.2586 65.533L30.2343 59.8683L30.4828 59.1558H31.1488H33.3149C33.8858 56.9171 35.0462 56.4047 36.1234 55.9294C36.5545 55.7392 36.9622 55.5592 37.1397 55.1996C37.7971 53.8673 37.1959 52.7806 36.7435 51.9628C36.3887 51.3215 36.0876 50.7775 36.0876 50.0925C36.0876 48.6763 36.4582 47.7791 36.7833 46.9917C36.9767 46.5233 37.1448 46.1163 37.0909 45.7422L37.087 45.7112C36.9313 44.399 35.6383 42.7788 34.0354 40.7704Z" fill="#212121"/>
<path d="M33.8271 62.8579C33.2816 62.8579 32.8393 62.3506 32.8393 61.7249C32.8393 61.0992 33.2816 60.592 33.8271 60.592H45.6804C46.226 60.592 46.6683 61.0992 46.6683 61.7249C46.6683 62.3506 46.226 62.8579 45.6804 62.8579H33.8271Z" fill="#212121"/>
<path d="M27.1912 20.9272L21.9752 20.9352C22.0461 23.8319 22.9074 26.6433 24.2529 29.1534C25.9779 32.3714 28.4873 35.0811 31.1532 36.8464C31.303 36.9449 31.9067 37.2946 32.3525 37.5509C32.6402 37.7164 32.793 37.8028 32.8364 37.8285L31.9335 39.8376C31.7306 39.7172 31.6134 39.6498 31.4728 39.5689C31.0025 39.2985 30.3633 38.9308 30.1692 38.8025C27.2328 36.8579 24.4668 33.8769 22.5706 30.3394C20.8659 27.1594 19.8517 23.5195 20.0177 19.7551L20.0651 18.6811L21.0016 18.6797L27.1912 18.6702L27.1912 20.9272Z" fill="#212121"/>
<path d="M52.3159 18.67L58.5055 18.6795L59.442 18.681L59.4894 19.7549C59.6557 23.5266 58.6334 27.1776 56.9174 30.3679C55.007 33.9194 52.2307 36.9052 49.2862 38.8409C49.1801 38.9105 48.6867 39.2235 48.208 39.5253C47.8352 39.7603 47.4723 39.9871 47.3401 40.0655L46.4372 38.0564C46.518 38.0084 46.8716 37.7867 47.2587 37.5427C47.6859 37.2734 48.1608 36.9713 48.3061 36.876C50.9866 35.1139 53.5105 32.4023 55.2427 29.1818C56.5953 26.6673 57.4615 23.8458 57.532 20.9351L52.3159 20.9271L52.3159 18.67Z" fill="#212121"/>
</g>
<defs>
<clipPath id="clip0_6_199">
<rect width="55" height="54" fill="white" transform="translate(12 13)"/>
</clipPath>
</defs>
</svg>
