<svg width="169" height="52" viewBox="0 0 169 52" fill="none" xmlns="http://www.w3.org/2000/svg">
<rect width="169" height="52" rx="15" fill="#F0EDF5" fill-opacity="0.3"/>
<path d="M10.984 9.516H14.056C14.728 9.516 15.32 9.616 15.832 9.816C16.352 10.008 16.784 10.288 17.128 10.656C17.48 11.016 17.744 11.46 17.92 11.988C18.096 12.516 18.184 13.108 18.184 13.764C18.184 14.428 18.096 15.02 17.92 15.54C17.744 16.06 17.484 16.504 17.14 16.872C16.804 17.24 16.38 17.52 15.868 17.712C15.364 17.904 14.776 18 14.104 18H10.984V9.516ZM12.376 10.764V16.764H14.068C14.532 16.764 14.932 16.692 15.268 16.548C15.604 16.404 15.88 16.204 16.096 15.948C16.32 15.684 16.484 15.368 16.588 15C16.7 14.632 16.756 14.22 16.756 13.764C16.756 12.82 16.524 12.084 16.06 11.556C15.604 11.028 14.936 10.764 14.056 10.764H12.376ZM20.579 15.3C20.595 15.532 20.643 15.748 20.723 15.948C20.803 16.148 20.911 16.324 21.047 16.476C21.191 16.62 21.363 16.736 21.563 16.824C21.771 16.912 22.011 16.956 22.283 16.956C22.571 16.956 22.835 16.904 23.075 16.8C23.315 16.696 23.491 16.516 23.603 16.26H25.007C24.927 16.58 24.795 16.856 24.611 17.088C24.435 17.32 24.223 17.512 23.975 17.664C23.735 17.808 23.467 17.916 23.171 17.988C22.883 18.052 22.575 18.084 22.247 18.084C21.743 18.084 21.299 18.008 20.915 17.856C20.539 17.704 20.223 17.484 19.967 17.196C19.711 16.908 19.519 16.568 19.391 16.176C19.271 15.776 19.211 15.328 19.211 14.832C19.211 14.352 19.279 13.916 19.415 13.524C19.551 13.124 19.747 12.78 20.003 12.492C20.267 12.204 20.583 11.98 20.951 11.82C21.319 11.652 21.739 11.568 22.211 11.568C22.707 11.568 23.135 11.652 23.495 11.82C23.855 11.98 24.155 12.2 24.395 12.48C24.643 12.76 24.827 13.088 24.947 13.464C25.067 13.84 25.127 14.248 25.127 14.688C25.127 14.896 25.115 15.1 25.091 15.3H20.579ZM23.795 14.268C23.779 13.788 23.627 13.416 23.339 13.152C23.051 12.888 22.679 12.756 22.223 12.756C21.967 12.756 21.743 12.796 21.551 12.876C21.359 12.956 21.195 13.064 21.059 13.2C20.931 13.336 20.827 13.496 20.747 13.68C20.667 13.864 20.615 14.06 20.591 14.268H23.795ZM28.6811 12.708C28.5611 12.708 28.4331 12.716 28.2971 12.732C28.1691 12.748 28.0451 12.784 27.9251 12.84C27.8131 12.888 27.7171 12.96 27.6371 13.056C27.5651 13.152 27.5291 13.276 27.5291 13.428C27.5291 13.596 27.5851 13.728 27.6971 13.824C27.8171 13.92 27.9571 14 28.1171 14.064C28.2771 14.12 28.4451 14.168 28.6211 14.208C28.8051 14.24 28.9611 14.268 29.0891 14.292C29.4331 14.364 29.7411 14.44 30.0131 14.52C30.2931 14.6 30.5291 14.708 30.7211 14.844C30.9131 14.972 31.0611 15.14 31.1651 15.348C31.2771 15.556 31.3331 15.828 31.3331 16.164C31.3331 16.524 31.2571 16.828 31.1051 17.076C30.9611 17.324 30.7691 17.524 30.5291 17.676C30.2971 17.82 30.0291 17.924 29.7251 17.988C29.4291 18.052 29.1211 18.084 28.8011 18.084C28.4811 18.084 28.1651 18.052 27.8531 17.988C27.5411 17.924 27.2531 17.816 26.9891 17.664C26.7331 17.512 26.5171 17.312 26.3411 17.064C26.1731 16.808 26.0691 16.5 26.0291 16.14H27.4091C27.4411 16.3 27.5091 16.432 27.6131 16.536C27.7171 16.64 27.8371 16.724 27.9731 16.788C28.1171 16.852 28.2651 16.896 28.4171 16.92C28.5691 16.944 28.7091 16.956 28.8371 16.956C28.9331 16.956 29.0491 16.948 29.1851 16.932C29.3291 16.916 29.4611 16.88 29.5811 16.824C29.7011 16.768 29.8011 16.696 29.8811 16.608C29.9691 16.512 30.0131 16.392 30.0131 16.248C30.0131 16.112 29.9811 16 29.9171 15.912C29.8531 15.816 29.7651 15.736 29.6531 15.672C29.5491 15.608 29.4211 15.56 29.2691 15.528C29.1171 15.488 28.9571 15.448 28.7891 15.408C28.5251 15.36 28.2411 15.3 27.9371 15.228C27.6411 15.156 27.3611 15.064 27.0971 14.952C26.8411 14.832 26.6291 14.656 26.4611 14.424C26.2931 14.192 26.2091 13.896 26.2091 13.536C26.2091 13.152 26.2851 12.836 26.4371 12.588C26.5891 12.34 26.7851 12.14 27.0251 11.988C27.2651 11.828 27.5331 11.72 27.8291 11.664C28.1251 11.6 28.4171 11.568 28.7051 11.568C29.4011 11.568 29.9691 11.728 30.4091 12.048C30.8571 12.368 31.1011 12.832 31.1411 13.44H29.8571C29.8171 13.184 29.6851 13.004 29.4611 12.9C29.2451 12.788 28.9851 12.724 28.6811 12.708ZM33.274 9.048C33.522 9.048 33.726 9.124 33.886 9.276C34.054 9.428 34.138 9.636 34.138 9.9C34.138 10.156 34.054 10.36 33.886 10.512C33.726 10.664 33.522 10.74 33.274 10.74C33.01 10.74 32.798 10.664 32.638 10.512C32.478 10.36 32.398 10.156 32.398 9.9C32.398 9.636 32.478 9.428 32.638 9.276C32.798 9.124 33.01 9.048 33.274 9.048ZM32.578 18V11.676H33.946V18H32.578ZM41.5292 16.884C41.5132 17.236 41.5052 17.588 41.5052 17.94C41.5052 18.292 41.4572 18.648 41.3612 19.008C41.1692 19.688 40.8212 20.196 40.3172 20.532C39.8132 20.868 39.1852 21.036 38.4332 21.036C38.0812 21.036 37.7452 20.996 37.4252 20.916C37.1132 20.836 36.8292 20.712 36.5732 20.544C36.3252 20.376 36.1132 20.16 35.9372 19.896C35.7612 19.64 35.6452 19.328 35.5892 18.96H37.0172C37.0812 19.248 37.2492 19.464 37.5212 19.608C37.8012 19.752 38.1092 19.824 38.4452 19.824C38.8292 19.824 39.1332 19.752 39.3572 19.608C39.5892 19.472 39.7652 19.28 39.8852 19.032C40.0052 18.792 40.0812 18.512 40.1132 18.192C40.1452 17.88 40.1612 17.548 40.1612 17.196C39.9612 17.508 39.7012 17.736 39.3812 17.88C39.0692 18.024 38.6772 18.1 38.2052 18.108C37.6612 18.1 37.2092 18.012 36.8492 17.844C36.4972 17.668 36.2052 17.432 35.9732 17.136C35.7412 16.84 35.5692 16.5 35.4572 16.116C35.3452 15.732 35.2892 15.324 35.2892 14.892C35.2892 14.412 35.3492 13.972 35.4692 13.572C35.5972 13.172 35.7852 12.824 36.0332 12.528C36.2812 12.232 36.5892 12 36.9572 11.832C37.3252 11.664 37.7532 11.58 38.2412 11.58C38.6572 11.58 39.0252 11.652 39.3452 11.796C39.6732 11.932 39.9572 12.144 40.1972 12.432L40.3052 11.676H41.5292V16.884ZM38.3852 12.816C38.0812 12.816 37.8172 12.868 37.5932 12.972C37.3772 13.076 37.1972 13.22 37.0532 13.404C36.9172 13.588 36.8132 13.808 36.7412 14.064C36.6772 14.312 36.6452 14.58 36.6452 14.868C36.6452 15.156 36.6772 15.424 36.7412 15.672C36.8132 15.912 36.9212 16.124 37.0652 16.308C37.2092 16.492 37.3892 16.64 37.6052 16.752C37.8292 16.856 38.0932 16.908 38.3972 16.908C38.7092 16.908 38.9732 16.848 39.1892 16.728C39.4132 16.608 39.5972 16.452 39.7412 16.26C39.8852 16.06 39.9932 15.836 40.0652 15.588C40.1372 15.34 40.1732 15.084 40.1732 14.82C40.1732 14.548 40.1372 14.288 40.0652 14.04C39.9932 13.792 39.8812 13.58 39.7292 13.404C39.5852 13.22 39.4012 13.076 39.1772 12.972C38.9532 12.868 38.6892 12.816 38.3852 12.816ZM43.0174 18V11.676H44.3254L44.3974 12.552C44.6294 12.224 44.9174 11.98 45.2614 11.82C45.6134 11.652 45.9854 11.568 46.3774 11.568C46.8254 11.568 47.2014 11.644 47.5054 11.796C47.8174 11.948 48.0694 12.156 48.2614 12.42C48.4614 12.684 48.6014 12.996 48.6814 13.356C48.7694 13.716 48.8134 14.108 48.8134 14.532V18H47.4454V14.736C47.4454 14.464 47.4254 14.212 47.3854 13.98C47.3534 13.748 47.2854 13.544 47.1814 13.368C47.0774 13.184 46.9294 13.04 46.7374 12.936C46.5534 12.832 46.3134 12.78 46.0174 12.78C45.7374 12.78 45.4814 12.848 45.2494 12.984C45.0254 13.12 44.8494 13.296 44.7214 13.512C44.6014 13.728 44.5134 13.968 44.4574 14.232C44.4094 14.496 44.3854 14.748 44.3854 14.988V18H43.0174ZM51.3876 15.3C51.4036 15.532 51.4516 15.748 51.5316 15.948C51.6116 16.148 51.7196 16.324 51.8556 16.476C51.9996 16.62 52.1716 16.736 52.3716 16.824C52.5796 16.912 52.8196 16.956 53.0916 16.956C53.3796 16.956 53.6436 16.904 53.8836 16.8C54.1236 16.696 54.2996 16.516 54.4116 16.26H55.8156C55.7356 16.58 55.6036 16.856 55.4196 17.088C55.2436 17.32 55.0316 17.512 54.7836 17.664C54.5436 17.808 54.2756 17.916 53.9796 17.988C53.6916 18.052 53.3836 18.084 53.0556 18.084C52.5516 18.084 52.1076 18.008 51.7236 17.856C51.3476 17.704 51.0316 17.484 50.7756 17.196C50.5196 16.908 50.3276 16.568 50.1996 16.176C50.0796 15.776 50.0196 15.328 50.0196 14.832C50.0196 14.352 50.0876 13.916 50.2236 13.524C50.3596 13.124 50.5556 12.78 50.8116 12.492C51.0756 12.204 51.3916 11.98 51.7596 11.82C52.1276 11.652 52.5476 11.568 53.0196 11.568C53.5156 11.568 53.9436 11.652 54.3036 11.82C54.6636 11.98 54.9636 12.2 55.2036 12.48C55.4516 12.76 55.6356 13.088 55.7556 13.464C55.8756 13.84 55.9356 14.248 55.9356 14.688C55.9356 14.896 55.9236 15.1 55.8996 15.3H51.3876ZM54.6036 14.268C54.5876 13.788 54.4356 13.416 54.1476 13.152C53.8596 12.888 53.4876 12.756 53.0316 12.756C52.7756 12.756 52.5516 12.796 52.3596 12.876C52.1676 12.956 52.0036 13.064 51.8676 13.2C51.7396 13.336 51.6356 13.496 51.5556 13.68C51.4756 13.864 51.4236 14.06 51.3996 14.268H54.6036ZM63.1617 18H61.8777L61.8057 17.124C61.5737 17.46 61.2817 17.7 60.9297 17.844C60.5777 17.988 60.1817 18.068 59.7417 18.084C59.2537 18.076 58.8337 17.988 58.4817 17.82C58.1297 17.644 57.8377 17.412 57.6057 17.124C57.3737 16.828 57.2017 16.488 57.0897 16.104C56.9857 15.72 56.9337 15.312 56.9337 14.88C56.9337 14.408 56.9937 13.972 57.1137 13.572C57.2417 13.172 57.4297 12.824 57.6777 12.528C57.9257 12.232 58.2297 12 58.5897 11.832C58.9497 11.656 59.3697 11.568 59.8497 11.568C60.1937 11.568 60.5417 11.624 60.8937 11.736C61.2457 11.848 61.5457 12.056 61.7937 12.36V9.516H63.1617V18ZM60.0057 12.804C59.7017 12.804 59.4417 12.856 59.2257 12.96C59.0097 13.064 58.8297 13.208 58.6857 13.392C58.5497 13.576 58.4497 13.796 58.3857 14.052C58.3217 14.3 58.2897 14.568 58.2897 14.856C58.2897 15.144 58.3217 15.412 58.3857 15.66C58.4497 15.908 58.5497 16.124 58.6857 16.308C58.8297 16.492 59.0097 16.64 59.2257 16.752C59.4497 16.856 59.7177 16.908 60.0297 16.908C60.3257 16.908 60.5817 16.852 60.7977 16.74C61.0217 16.62 61.2057 16.464 61.3497 16.272C61.5017 16.08 61.6137 15.86 61.6857 15.612C61.7577 15.364 61.7937 15.108 61.7937 14.844C61.7937 14.564 61.7577 14.3 61.6857 14.052C61.6217 13.804 61.5177 13.592 61.3737 13.416C61.2297 13.232 61.0457 13.088 60.8217 12.984C60.5977 12.872 60.3257 12.812 60.0057 12.804ZM72.9126 17.34C72.5926 17.62 72.2326 17.824 71.8326 17.952C71.4406 18.08 71.0006 18.144 70.5126 18.144C70.1526 18.144 69.8126 18.092 69.4926 17.988C69.1726 17.884 68.8926 17.736 68.6526 17.544C68.4206 17.344 68.2326 17.1 68.0886 16.812C67.9526 16.516 67.8846 16.18 67.8846 15.804C67.8846 15.252 68.0326 14.788 68.3286 14.412C68.6326 14.036 69.0246 13.72 69.5046 13.464C69.2326 13.2 69.0166 12.916 68.8566 12.612C68.7046 12.308 68.6286 11.98 68.6286 11.628C68.6286 11.284 68.6886 10.976 68.8086 10.704C68.9286 10.432 69.0926 10.204 69.3006 10.02C69.5086 9.828 69.7526 9.684 70.0326 9.588C70.3126 9.492 70.6166 9.444 70.9446 9.444C71.2406 9.444 71.5206 9.488 71.7846 9.576C72.0486 9.656 72.2806 9.78 72.4806 9.948C72.6806 10.108 72.8366 10.308 72.9486 10.548C73.0606 10.788 73.1166 11.064 73.1166 11.376C73.1166 11.632 73.0686 11.876 72.9726 12.108C72.8766 12.332 72.7486 12.54 72.5886 12.732C72.4366 12.924 72.2526 13.1 72.0366 13.26C71.8286 13.42 71.6126 13.564 71.3886 13.692L72.9486 15.504C73.0606 15.296 73.1486 15.076 73.2126 14.844C73.2846 14.612 73.3366 14.376 73.3686 14.136H74.6166C74.5766 14.536 74.4886 14.928 74.3526 15.312C74.2166 15.688 74.0286 16.052 73.7886 16.404L75.2406 18H73.5246L72.9126 17.34ZM70.6086 12.9C70.7286 12.828 70.8606 12.744 71.0046 12.648C71.1486 12.552 71.2846 12.444 71.4126 12.324C71.5406 12.204 71.6446 12.076 71.7246 11.94C71.8126 11.804 71.8566 11.66 71.8566 11.508C71.8566 11.228 71.7686 11.008 71.5926 10.848C71.4246 10.68 71.2006 10.596 70.9206 10.596C70.6166 10.596 70.3646 10.676 70.1646 10.836C69.9726 10.996 69.8766 11.232 69.8766 11.544C69.8766 11.688 69.8966 11.824 69.9366 11.952C69.9846 12.08 70.0446 12.2 70.1166 12.312C70.1886 12.416 70.2686 12.516 70.3566 12.612C70.4446 12.708 70.5286 12.804 70.6086 12.9ZM70.2366 14.316C69.9486 14.476 69.7006 14.672 69.4926 14.904C69.2926 15.128 69.1926 15.404 69.1926 15.732C69.1926 15.948 69.2366 16.136 69.3246 16.296C69.4126 16.448 69.5286 16.576 69.6726 16.68C69.8166 16.776 69.9766 16.848 70.1526 16.896C70.3366 16.944 70.5246 16.968 70.7166 16.968C70.9726 16.968 71.2246 16.928 71.4726 16.848C71.7206 16.76 71.9486 16.632 72.1566 16.464L70.2366 14.316ZM79.691 9.516H82.763C83.435 9.516 84.027 9.616 84.539 9.816C85.059 10.008 85.491 10.288 85.835 10.656C86.187 11.016 86.451 11.46 86.627 11.988C86.803 12.516 86.891 13.108 86.891 13.764C86.891 14.428 86.803 15.02 86.627 15.54C86.451 16.06 86.191 16.504 85.847 16.872C85.511 17.24 85.087 17.52 84.575 17.712C84.071 17.904 83.483 18 82.811 18H79.691V9.516ZM81.083 10.764V16.764H82.775C83.239 16.764 83.639 16.692 83.975 16.548C84.311 16.404 84.587 16.204 84.803 15.948C85.027 15.684 85.191 15.368 85.295 15C85.407 14.632 85.463 14.22 85.463 13.764C85.463 12.82 85.231 12.084 84.767 11.556C84.311 11.028 83.643 10.764 82.763 10.764H81.083ZM89.2861 15.3C89.3021 15.532 89.3501 15.748 89.4301 15.948C89.5101 16.148 89.6181 16.324 89.7541 16.476C89.8981 16.62 90.0701 16.736 90.2701 16.824C90.4781 16.912 90.7181 16.956 90.9901 16.956C91.2781 16.956 91.5421 16.904 91.7821 16.8C92.0221 16.696 92.1981 16.516 92.3101 16.26H93.7141C93.6341 16.58 93.5021 16.856 93.3181 17.088C93.1421 17.32 92.9301 17.512 92.6821 17.664C92.4421 17.808 92.1741 17.916 91.8781 17.988C91.5901 18.052 91.2821 18.084 90.9541 18.084C90.4501 18.084 90.0061 18.008 89.6221 17.856C89.2461 17.704 88.9301 17.484 88.6741 17.196C88.4181 16.908 88.2261 16.568 88.0981 16.176C87.9781 15.776 87.9181 15.328 87.9181 14.832C87.9181 14.352 87.9861 13.916 88.1221 13.524C88.2581 13.124 88.4541 12.78 88.7101 12.492C88.9741 12.204 89.2901 11.98 89.6581 11.82C90.0261 11.652 90.4461 11.568 90.9181 11.568C91.4141 11.568 91.8421 11.652 92.2021 11.82C92.5621 11.98 92.8621 12.2 93.1021 12.48C93.3501 12.76 93.5341 13.088 93.6541 13.464C93.7741 13.84 93.8341 14.248 93.8341 14.688C93.8341 14.896 93.8221 15.1 93.7981 15.3H89.2861ZM92.5021 14.268C92.4861 13.788 92.3341 13.416 92.0461 13.152C91.7581 12.888 91.3861 12.756 90.9301 12.756C90.6741 12.756 90.4501 12.796 90.2581 12.876C90.0661 12.956 89.9021 13.064 89.7661 13.2C89.6381 13.336 89.5341 13.496 89.4541 13.68C89.3741 13.864 89.3221 14.06 89.2981 14.268H92.5021ZM94.3521 11.676H95.8641L97.6161 16.692L99.3561 11.676H100.868L98.4921 18H96.7281L94.3521 11.676ZM102.763 15.3C102.779 15.532 102.827 15.748 102.907 15.948C102.987 16.148 103.095 16.324 103.231 16.476C103.375 16.62 103.547 16.736 103.747 16.824C103.955 16.912 104.195 16.956 104.467 16.956C104.755 16.956 105.019 16.904 105.259 16.8C105.499 16.696 105.675 16.516 105.787 16.26H107.191C107.111 16.58 106.979 16.856 106.795 17.088C106.619 17.32 106.407 17.512 106.159 17.664C105.919 17.808 105.651 17.916 105.355 17.988C105.067 18.052 104.759 18.084 104.431 18.084C103.927 18.084 103.483 18.008 103.099 17.856C102.723 17.704 102.407 17.484 102.151 17.196C101.895 16.908 101.703 16.568 101.575 16.176C101.455 15.776 101.395 15.328 101.395 14.832C101.395 14.352 101.463 13.916 101.599 13.524C101.735 13.124 101.931 12.78 102.187 12.492C102.451 12.204 102.767 11.98 103.135 11.82C103.503 11.652 103.923 11.568 104.395 11.568C104.891 11.568 105.319 11.652 105.679 11.82C106.039 11.98 106.339 12.2 106.579 12.48C106.827 12.76 107.011 13.088 107.131 13.464C107.251 13.84 107.311 14.248 107.311 14.688C107.311 14.896 107.299 15.1 107.275 15.3H102.763ZM105.979 14.268C105.963 13.788 105.811 13.416 105.523 13.152C105.235 12.888 104.863 12.756 104.407 12.756C104.151 12.756 103.927 12.796 103.735 12.876C103.543 12.956 103.379 13.064 103.243 13.2C103.115 13.336 103.011 13.496 102.931 13.68C102.851 13.864 102.799 14.06 102.775 14.268H105.979ZM108.549 18V9.516H109.917V18H108.549ZM114.252 11.568C114.756 11.568 115.2 11.648 115.584 11.808C115.968 11.968 116.292 12.192 116.556 12.48C116.828 12.76 117.032 13.1 117.168 13.5C117.304 13.9 117.372 14.344 117.372 14.832C117.372 15.328 117.304 15.776 117.168 16.176C117.04 16.568 116.844 16.908 116.58 17.196C116.316 17.484 115.988 17.704 115.596 17.856C115.212 18.008 114.764 18.084 114.252 18.084C113.748 18.084 113.304 18.008 112.92 17.856C112.536 17.696 112.212 17.476 111.948 17.196C111.692 16.908 111.496 16.564 111.36 16.164C111.232 15.764 111.168 15.32 111.168 14.832C111.168 14.344 111.232 13.9 111.36 13.5C111.496 13.1 111.696 12.76 111.96 12.48C112.224 12.192 112.548 11.968 112.932 11.808C113.316 11.648 113.756 11.568 114.252 11.568ZM114.252 16.896C114.564 16.896 114.828 16.844 115.044 16.74C115.268 16.628 115.448 16.48 115.584 16.296C115.728 16.112 115.832 15.896 115.896 15.648C115.968 15.4 116.004 15.132 116.004 14.844C116.004 14.556 115.968 14.288 115.896 14.04C115.832 13.784 115.728 13.564 115.584 13.38C115.448 13.196 115.268 13.052 115.044 12.948C114.828 12.844 114.564 12.792 114.252 12.792C113.948 12.792 113.688 12.844 113.472 12.948C113.256 13.052 113.076 13.196 112.932 13.38C112.788 13.564 112.68 13.784 112.608 14.04C112.544 14.288 112.512 14.556 112.512 14.844C112.512 15.132 112.544 15.4 112.608 15.648C112.68 15.896 112.784 16.112 112.92 16.296C113.064 16.48 113.244 16.628 113.46 16.74C113.684 16.844 113.948 16.896 114.252 16.896ZM118.615 20.46V11.676H119.911L119.983 12.576C120.231 12.24 120.535 11.988 120.895 11.82C121.255 11.652 121.643 11.568 122.059 11.568C122.491 11.568 122.879 11.648 123.223 11.808C123.567 11.96 123.859 12.176 124.099 12.456C124.347 12.736 124.531 13.076 124.651 13.476C124.779 13.868 124.843 14.316 124.843 14.82C124.843 15.292 124.783 15.728 124.663 16.128C124.543 16.528 124.363 16.876 124.123 17.172C123.891 17.46 123.599 17.684 123.247 17.844C122.903 18.004 122.499 18.084 122.035 18.084C121.635 18.084 121.255 18.024 120.895 17.904C120.543 17.776 120.239 17.58 119.983 17.316V20.46H118.615ZM121.771 16.896C122.067 16.896 122.323 16.844 122.539 16.74C122.755 16.628 122.931 16.48 123.067 16.296C123.211 16.112 123.315 15.896 123.379 15.648C123.451 15.4 123.487 15.132 123.487 14.844C123.487 14.556 123.451 14.288 123.379 14.04C123.315 13.784 123.211 13.564 123.067 13.38C122.931 13.196 122.751 13.052 122.527 12.948C122.311 12.844 122.051 12.792 121.747 12.792C121.451 12.792 121.195 12.848 120.979 12.96C120.763 13.072 120.579 13.22 120.427 13.404C120.275 13.588 120.159 13.808 120.079 14.064C120.007 14.312 119.971 14.568 119.971 14.832C119.971 15.416 120.123 15.904 120.427 16.296C120.731 16.688 121.179 16.888 121.771 16.896ZM127.22 15.3C127.236 15.532 127.284 15.748 127.364 15.948C127.444 16.148 127.552 16.324 127.688 16.476C127.832 16.62 128.004 16.736 128.204 16.824C128.412 16.912 128.652 16.956 128.924 16.956C129.212 16.956 129.476 16.904 129.716 16.8C129.956 16.696 130.132 16.516 130.244 16.26H131.648C131.568 16.58 131.436 16.856 131.252 17.088C131.076 17.32 130.864 17.512 130.616 17.664C130.376 17.808 130.108 17.916 129.812 17.988C129.524 18.052 129.216 18.084 128.888 18.084C128.384 18.084 127.94 18.008 127.556 17.856C127.18 17.704 126.864 17.484 126.608 17.196C126.352 16.908 126.16 16.568 126.032 16.176C125.912 15.776 125.852 15.328 125.852 14.832C125.852 14.352 125.92 13.916 126.056 13.524C126.192 13.124 126.388 12.78 126.644 12.492C126.908 12.204 127.224 11.98 127.592 11.82C127.96 11.652 128.38 11.568 128.852 11.568C129.348 11.568 129.776 11.652 130.136 11.82C130.496 11.98 130.796 12.2 131.036 12.48C131.284 12.76 131.468 13.088 131.588 13.464C131.708 13.84 131.768 14.248 131.768 14.688C131.768 14.896 131.756 15.1 131.732 15.3H127.22ZM130.436 14.268C130.42 13.788 130.268 13.416 129.98 13.152C129.692 12.888 129.32 12.756 128.864 12.756C128.608 12.756 128.384 12.796 128.192 12.876C128 12.956 127.836 13.064 127.7 13.2C127.572 13.336 127.468 13.496 127.388 13.68C127.308 13.864 127.256 14.06 127.232 14.268H130.436ZM138.994 18H137.71L137.638 17.124C137.406 17.46 137.114 17.7 136.762 17.844C136.41 17.988 136.014 18.068 135.574 18.084C135.086 18.076 134.666 17.988 134.314 17.82C133.962 17.644 133.67 17.412 133.438 17.124C133.206 16.828 133.034 16.488 132.922 16.104C132.818 15.72 132.766 15.312 132.766 14.88C132.766 14.408 132.826 13.972 132.946 13.572C133.074 13.172 133.262 12.824 133.51 12.528C133.758 12.232 134.062 12 134.422 11.832C134.782 11.656 135.202 11.568 135.682 11.568C136.026 11.568 136.374 11.624 136.726 11.736C137.078 11.848 137.378 12.056 137.626 12.36V9.516H138.994V18ZM135.838 12.804C135.534 12.804 135.274 12.856 135.058 12.96C134.842 13.064 134.662 13.208 134.518 13.392C134.382 13.576 134.282 13.796 134.218 14.052C134.154 14.3 134.122 14.568 134.122 14.856C134.122 15.144 134.154 15.412 134.218 15.66C134.282 15.908 134.382 16.124 134.518 16.308C134.662 16.492 134.842 16.64 135.058 16.752C135.282 16.856 135.55 16.908 135.862 16.908C136.158 16.908 136.414 16.852 136.63 16.74C136.854 16.62 137.038 16.464 137.182 16.272C137.334 16.08 137.446 15.86 137.518 15.612C137.59 15.364 137.626 15.108 137.626 14.844C137.626 14.564 137.59 14.3 137.518 14.052C137.454 13.804 137.35 13.592 137.206 13.416C137.062 13.232 136.878 13.088 136.654 12.984C136.43 12.872 136.158 12.812 135.838 12.804ZM143.945 9.516H147.317C147.637 9.516 147.961 9.544 148.289 9.6C148.617 9.656 148.913 9.764 149.177 9.924C149.441 10.076 149.653 10.292 149.813 10.572C149.981 10.844 150.065 11.2 150.065 11.64C150.065 12.048 149.981 12.412 149.813 12.732C149.645 13.052 149.369 13.304 148.985 13.488C149.529 13.616 149.913 13.856 150.137 14.208C150.369 14.552 150.485 14.976 150.485 15.48C150.485 15.984 150.377 16.404 150.161 16.74C149.953 17.076 149.685 17.336 149.357 17.52C149.029 17.704 148.661 17.832 148.253 17.904C147.853 17.968 147.457 18 147.065 18H143.945V9.516ZM145.337 10.764V13.092H146.921C147.121 13.092 147.329 13.08 147.545 13.056C147.761 13.024 147.953 12.968 148.121 12.888C148.297 12.8 148.441 12.676 148.553 12.516C148.665 12.356 148.721 12.14 148.721 11.868C148.721 11.62 148.677 11.424 148.589 11.28C148.501 11.128 148.385 11.016 148.241 10.944C148.097 10.864 147.929 10.816 147.737 10.8C147.553 10.776 147.361 10.764 147.161 10.764H145.337ZM147.041 16.764C147.265 16.764 147.497 16.752 147.737 16.728C147.977 16.704 148.197 16.648 148.397 16.56C148.597 16.472 148.761 16.344 148.889 16.176C149.025 16 149.093 15.764 149.093 15.468C149.093 15.228 149.041 15.032 148.937 14.88C148.841 14.72 148.713 14.6 148.553 14.52C148.393 14.432 148.213 14.372 148.013 14.34C147.821 14.308 147.625 14.292 147.425 14.292C147.249 14.292 147.073 14.292 146.897 14.292L145.865 14.304C145.689 14.304 145.513 14.304 145.337 14.304V16.764H147.041ZM157.6 11.676V16.992C157.6 17.352 157.592 17.72 157.576 18.096C157.568 18.472 157.504 18.84 157.384 19.2C157.2 19.776 156.868 20.228 156.388 20.556C155.908 20.884 155.264 21.048 154.456 21.048C153.976 21.048 153.512 20.984 153.064 20.856C152.624 20.728 152.208 20.516 151.816 20.22C151.904 20.036 151.988 19.844 152.068 19.644C152.156 19.452 152.244 19.26 152.332 19.068C152.596 19.276 152.896 19.452 153.232 19.596C153.576 19.74 153.968 19.812 154.408 19.812C154.832 19.812 155.164 19.74 155.404 19.596C155.644 19.452 155.824 19.256 155.944 19.008C156.072 18.768 156.152 18.488 156.184 18.168C156.224 17.856 156.244 17.536 156.244 17.208C156.02 17.528 155.74 17.756 155.404 17.892C155.076 18.028 154.704 18.096 154.288 18.096C153.816 18.096 153.412 18.024 153.076 17.88C152.74 17.736 152.476 17.536 152.284 17.28C152.092 17.024 151.956 16.72 151.876 16.368C151.796 16.016 151.756 15.632 151.756 15.216V11.676H153.112V14.952C153.112 15.208 153.128 15.456 153.16 15.696C153.2 15.928 153.272 16.136 153.376 16.32C153.488 16.496 153.64 16.64 153.832 16.752C154.024 16.856 154.276 16.908 154.588 16.908C154.908 16.908 155.172 16.844 155.38 16.716C155.596 16.588 155.764 16.424 155.884 16.224C156.012 16.016 156.1 15.78 156.148 15.516C156.204 15.252 156.232 14.98 156.232 14.7V11.676H157.6Z" fill="#F0EDF5"/>
<g clip-path="url(#clip0_14_420)">
<path d="M61.78 30.13H63.95L65.518 39.44H66.078L67.296 30.13H72.056L73.274 39.44H73.834L75.402 30.13H77.572L75.878 40H71.23L69.956 30.69H69.396L68.122 40H63.474L61.78 30.13ZM77.7143 36.458C77.7143 35.2727 78.0876 34.3673 78.8343 33.742C79.581 33.1073 80.5376 32.79 81.7043 32.79C82.871 32.79 83.823 33.1073 84.5603 33.742C85.307 34.3673 85.6803 35.2727 85.6803 36.458C85.6803 37.6433 85.307 38.5533 84.5603 39.188C83.823 39.8227 82.871 40.14 81.7043 40.14C80.5376 40.14 79.581 39.8273 78.8343 39.202C78.0876 38.5673 77.7143 37.6527 77.7143 36.458ZM79.9543 36.458C79.9543 37.0367 80.1083 37.4707 80.4163 37.76C80.7243 38.04 81.1536 38.18 81.7043 38.18C82.2456 38.18 82.6703 38.04 82.9783 37.76C83.2863 37.4707 83.4403 37.0367 83.4403 36.458C83.4403 35.8887 83.2863 35.464 82.9783 35.184C82.6703 34.8947 82.2456 34.75 81.7043 34.75C81.1536 34.75 80.7243 34.8947 80.4163 35.184C80.1083 35.464 79.9543 35.8887 79.9543 36.458ZM90.9183 34.75C90.2649 34.75 89.7656 34.9553 89.4203 35.366C89.0749 35.7673 88.9023 36.4393 88.9023 37.382V40H86.6623V32.93H88.9023V33.784L88.4823 35.044H89.0423C89.1916 34.372 89.4949 33.8307 89.9523 33.42C90.4096 33 90.9976 32.79 91.7163 32.79C92.6309 32.79 93.3403 33.084 93.8443 33.672C94.3576 34.26 94.6143 35.0953 94.6143 36.178V40H92.3743V36.528C92.3743 35.884 92.2623 35.4267 92.0383 35.156C91.8236 34.8853 91.4503 34.75 90.9183 34.75ZM103.878 32.93H104.494V34.89H104.018C103.71 34.89 103.491 34.932 103.36 35.016C103.491 35.1933 103.556 35.464 103.556 35.828C103.556 36.4627 103.281 37.004 102.73 37.452C102.189 37.9 101.4 38.3013 100.364 38.656C100.943 38.6187 101.451 38.6467 101.89 38.74C102.338 38.8333 102.711 39.0293 103.01 39.328C103.318 39.6173 103.472 40 103.472 40.476C103.472 40.8213 103.407 41.12 103.276 41.372C103.145 41.624 102.926 41.834 102.618 42.002C102.319 42.1793 101.979 42.3193 101.596 42.422C101.223 42.5247 100.719 42.604 100.084 42.66C99.4587 42.716 98.824 42.7533 98.18 42.772C97.536 42.7907 96.7333 42.8 95.772 42.8V40.84C98.124 40.84 99.6173 40.7933 100.252 40.7C100.896 40.6067 101.218 40.3733 101.218 40C101.218 39.7667 101.087 39.5987 100.826 39.496C100.565 39.384 100.21 39.342 99.762 39.37C99.314 39.3887 98.838 39.4353 98.334 39.51C97.83 39.5753 97.2933 39.6547 96.724 39.748C96.6307 39.7667 96.5607 39.7807 96.514 39.79L96.276 38.53C98.236 38.3247 99.6873 38.11 100.63 37.886V37.326C99.9767 37.5593 99.3327 37.704 98.698 37.76C98.0727 37.816 97.5033 37.7833 96.99 37.662C96.486 37.5407 96.08 37.298 95.772 36.934C95.464 36.57 95.31 36.108 95.31 35.548C95.31 34.652 95.6787 33.9707 96.416 33.504C97.1627 33.028 98.124 32.79 99.3 32.79C100.485 32.79 101.419 33.042 102.1 33.546C102.417 33.1353 103.01 32.93 103.878 32.93ZM99.44 36.626C100.691 36.626 101.316 36.3133 101.316 35.688C101.316 35.0627 100.691 34.75 99.44 34.75C98.18 34.75 97.55 35.0627 97.55 35.688C97.55 36.3133 98.18 36.626 99.44 36.626ZM105.201 40V33.994C105.201 33.6113 105.304 33.3173 105.509 33.112C105.724 32.9067 106.023 32.8087 106.405 32.818L111.039 32.93V34.89L107.441 34.806V40H105.201ZM115.622 31.936C115.388 32.132 115.062 32.23 114.642 32.23C114.222 32.23 113.895 32.1367 113.662 31.95C113.438 31.754 113.326 31.474 113.326 31.11C113.326 30.7553 113.442 30.48 113.676 30.284C113.909 30.088 114.231 29.99 114.642 29.99C115.062 29.99 115.388 30.088 115.622 30.284C115.864 30.48 115.986 30.7553 115.986 31.11C115.986 31.4647 115.864 31.74 115.622 31.936ZM111.744 40V38.04H113.746V34.806L112.024 34.89V32.93L114.684 32.79C115.076 32.7713 115.374 32.8647 115.58 33.07C115.794 33.2753 115.902 33.574 115.902 33.966V38.04H117.904V40H111.744ZM126.552 40H124.312V39.566L124.732 38.306H124.172C123.957 38.866 123.635 39.314 123.206 39.65C122.786 39.9767 122.179 40.14 121.386 40.14C120.406 40.14 119.65 39.79 119.118 39.09C118.586 38.39 118.32 37.5127 118.32 36.458C118.32 35.4033 118.586 34.5307 119.118 33.84C119.65 33.14 120.406 32.79 121.386 32.79C122.179 32.79 122.786 32.958 123.206 33.294C123.635 33.6207 123.957 34.064 124.172 34.624H124.732L124.312 33.364V29.71H126.552V40ZM124.312 36.458C124.312 35.3193 123.686 34.75 122.436 34.75C121.185 34.75 120.56 35.3193 120.56 36.458C120.56 37.606 121.185 38.18 122.436 38.18C123.686 38.18 124.312 37.606 124.312 36.458Z" fill="#F0EDF5"/>
<path d="M46.4385 25.0936C46.1676 25.2017 45.2467 25.4179 44.4341 25.5801C41.0754 26.3369 37.5542 31.0939 37.5 34.986C37.5 37.1482 38.8001 40.3376 40.3711 42.0133C44.8675 46.8243 53.5893 45.6351 56.4062 39.797C58.7357 34.986 57.2188 29.1478 53.0475 26.7694C50.8806 25.5261 47.5761 24.7152 46.4385 25.0936ZM51.5849 27.7964C53.4268 28.7695 56.2437 32.2291 55.6478 32.8237C55.4311 33.0399 55.1061 32.8777 54.9978 32.4994C54.6186 31.4182 52.0724 28.6073 51.5307 28.6073C51.2598 28.6073 51.0432 29.0938 51.0432 29.6344C51.0432 30.229 50.8265 30.8777 50.5014 31.0398C49.5263 31.6344 49.9597 32.3912 51.314 32.3912C52.0183 32.3912 52.8309 32.7696 53.1017 33.2561C53.4268 33.8508 54.0227 34.067 54.7811 33.8508C55.7562 33.6345 55.9187 33.7967 55.9187 35.4184C55.9187 39.1483 52.7225 42.7701 48.8221 43.4728C45.8968 44.0134 42.2672 42.2836 40.5337 39.4727C38.9085 36.932 38.8543 36.7158 39.9378 36.7158C40.3711 36.7158 40.6962 36.8779 40.6962 37.0942C40.642 37.3644 40.642 37.851 40.6962 38.2834C40.8045 39.5808 42.9173 37.2563 42.9173 35.7968C42.9173 34.9319 43.2423 34.5535 44.0007 34.5535C44.5966 34.5535 45.0842 34.2832 45.0842 34.0129C45.0842 33.6886 44.705 33.4724 44.2716 33.4724C43.8382 33.4724 43.459 33.2021 43.459 32.9318C43.459 32.6075 42.7547 32.3912 41.8338 32.3912C40.3711 32.3912 40.2086 32.5534 40.2086 34.0129C40.2086 34.8778 39.9919 35.6346 39.6669 35.6346C37.9334 35.6346 40.642 29.6884 43.0798 28.1208C45.1925 26.7694 49.3096 26.6072 51.5849 27.7964Z" fill="#F0EDF5"/>
<path d="M45.6262 28.5971C45.6262 29.462 45.9513 29.9485 46.4388 29.9485C46.8722 29.9485 47.2514 30.1647 47.2514 30.489C47.2514 31.2458 49.0391 31.1918 49.8517 30.3809C51.531 28.7052 50.2851 27.2456 47.1972 27.2456C45.8971 27.2456 45.6262 27.4619 45.6262 28.5971Z" fill="#F0EDF5"/>
<path d="M42.5924 29.2451C41.2923 30.4343 41.184 30.7587 41.9424 30.9208C42.9717 31.1371 45.0844 29.5154 45.0844 28.4883C45.0844 27.4071 44.326 27.6234 42.5924 29.2451Z" fill="#F0EDF5"/>
<path d="M44.5425 31.5697C44.5425 32.1644 44.9217 32.6509 45.3551 32.6509C45.7885 32.6509 46.1677 32.1644 46.1677 31.5697C46.1677 30.9751 45.7885 30.4886 45.3551 30.4886C44.9217 30.4886 44.5425 30.9751 44.5425 31.5697Z" fill="#F0EDF5"/>
<path d="M47.2511 32.6512C47.2511 32.9215 46.8719 33.1918 46.4385 33.1918C46.0051 33.1918 45.6259 33.6783 45.6259 34.2729C45.6259 34.9756 45.2467 35.354 44.5424 35.354C43.2423 35.354 43.1339 36.0568 44.2716 36.9757C44.8133 37.4622 45.0842 37.4622 45.0842 37.0298C45.0842 36.7054 45.8426 36.4352 46.7093 36.4352C47.9553 36.4352 48.3345 36.6514 48.3345 37.5163C48.3345 38.7055 49.418 38.9218 50.3931 37.9487C51.314 37.0298 51.2057 35.354 50.2306 35.354C49.6888 35.354 49.418 34.8135 49.418 33.7323C49.418 32.489 49.2013 32.1106 48.3345 32.1106C47.7386 32.1106 47.2511 32.3269 47.2511 32.6512Z" fill="#F0EDF5"/>
<path d="M50.5017 34.0031C50.5017 34.4356 50.8809 34.814 51.3143 34.814C51.7477 34.814 52.1269 34.4356 52.1269 34.0031C52.1269 33.5707 51.7477 33.1923 51.3143 33.1923C50.8809 33.1923 50.5017 33.5707 50.5017 34.0031Z" fill="#F0EDF5"/>
<path d="M52.5601 35.4087C50.9891 36.3277 51.6392 39.6792 53.3727 39.6792C53.8061 39.6792 55.3771 36.3817 55.3771 35.3547C55.3771 34.6519 53.7519 34.6519 52.5601 35.4087Z" fill="#F0EDF5"/>
<path d="M42.159 38.4887C41.3464 39.4617 41.3464 39.5698 42.2132 40.3266C44.8134 42.5429 48.2263 43.0294 51.0975 41.5158C52.6685 40.7591 52.7227 40.5969 51.9101 39.732C50.9891 38.759 48.3347 38.759 48.3347 39.732C48.3347 40.0023 47.6304 40.2185 46.8178 40.2185C45.6802 40.2185 45.0843 39.8401 44.6509 38.8671C43.8925 37.2454 43.405 37.1913 42.159 38.4887Z" fill="#F0EDF5"/>
<path d="M45.6262 38.3273C45.6262 38.7598 46.1138 39.1382 46.7097 39.1382C47.3056 39.1382 47.7931 38.7598 47.7931 38.3273C47.7931 37.8949 47.3056 37.5165 46.7097 37.5165C46.1138 37.5165 45.6262 37.8949 45.6262 38.3273Z" fill="#F0EDF5"/>
</g>
<defs>
<clipPath id="clip0_14_420">
<rect width="94" height="21" fill="white" transform="translate(37.5 24)"/>
</clipPath>
</defs>
</svg>
