<svg width="345" height="52" viewBox="0 0 345 52" fill="none" xmlns="http://www.w3.org/2000/svg">
<g clip-path="url(#clip0_22_2)">
<path d="M0.358276 24.9364V49.9318H50.4582H100.558V49.1341V48.3364H51.3528H2.14756V24.9364V1.53636H172.934H343.721V24.9364V48.3364H295.232H246.742V49.1341V49.9318H296.037H345.332V24.9364V-0.0590902H172.845H0.358276V24.9364Z" fill="#323738"/>
<path d="M152.322 9.99225L151.016 10.2582V21.7632V33.2682H152.537H154.058V21.4795C154.058 12.155 154.004 9.69089 153.843 9.70861C153.718 9.72634 153.02 9.85043 152.322 9.99225Z" fill="#323738"/>
<path d="M158.244 10.5595C157.296 10.9673 156.992 12.2968 157.636 13.1123C158.745 14.5127 161.125 13.8568 161.125 12.155C161.125 11.1977 160.463 10.5595 159.408 10.4709C158.978 10.4354 158.441 10.4709 158.244 10.5595Z" fill="#323738"/>
<path d="M71.8937 16.4273C71.178 16.6045 69.5498 17.3845 68.5836 18.0227C67.9573 18.4482 67.9573 18.4482 67.7068 17.0832L67.5995 16.4273H66.3649H65.1302V24.8477V33.2682H66.6511H68.172V27.2763V21.3023L69.2635 20.5932C72.1263 18.7673 74.6492 18.8027 75.7586 20.6818C76.1164 21.2668 76.1343 21.6213 76.188 27.2763L76.2417 33.2682H77.7447H79.2656V27.3295V21.4086L80.035 20.8945C81.6453 19.7954 82.6831 19.3877 84.0966 19.2991C85.2776 19.2459 85.5102 19.2813 86.047 19.6536C86.3869 19.8663 86.8342 20.345 87.0311 20.6818C87.3889 21.2668 87.4068 21.6213 87.4605 27.2763L87.5142 33.2682H89.0351H90.5559L90.5023 26.9218L90.4486 20.5932L89.8581 19.4054C88.9277 17.5441 87.4605 16.6045 85.045 16.3386C83.363 16.1436 81.2517 16.8704 79.3729 18.2886L78.532 18.9091L77.691 18.0582C76.3669 16.7109 73.7367 15.9663 71.8937 16.4273Z" fill="#323738"/>
<path d="M100.021 16.5336C99.4845 16.6755 98.4646 17.0655 97.7847 17.4023C97.0869 17.7391 96.4785 18.0227 96.4248 18.0227C96.3533 18.0227 96.2459 17.6682 96.1922 17.225L96.067 16.4273H94.8145H93.5799V28.1273V39.8273H95.1008H96.6216V36.0868C96.6216 32.5945 96.6395 32.3464 96.9437 32.4705C98.1604 33.0023 99.395 33.3214 100.469 33.41C105.461 33.7468 109.504 29.9177 109.504 24.8477C109.504 22.5432 108.664 20.4514 107.089 18.7673C105.997 17.5973 104.852 16.9236 103.331 16.5159C102.043 16.1968 101.31 16.1968 100.021 16.5336ZM103.296 19.76C104.351 20.2209 105.335 21.2314 105.908 22.4368C106.266 23.2345 106.355 23.6955 106.373 24.8477C106.373 26.1064 106.302 26.4077 105.783 27.4714C104.745 29.5455 102.795 30.5914 100.433 30.3609C99.2698 30.2368 97.8741 29.7759 97.069 29.2618L96.6216 28.9782V24.9364V20.8945L97.8741 20.2564C99.896 19.1927 101.65 19.0332 103.296 19.76Z" fill="#323738"/>
<path d="M118.129 16.6932C116.053 17.4023 114.586 18.4836 113.441 20.1854C112.367 21.7809 111.938 23.3586 112.063 25.2732C112.17 27.17 112.654 28.4995 113.763 29.9532C115.355 32.0273 117.789 33.2682 120.509 33.41C121.904 33.4809 122.298 33.4277 123.515 33.02C125.214 32.4527 126.145 31.8854 127.308 30.6977C131.047 26.9041 130.35 20.6995 125.841 17.7391C123.568 16.25 120.634 15.86 118.129 16.6932ZM123.192 19.7777C124.32 20.2741 125.68 21.5859 126.163 22.685C126.717 23.9259 126.735 25.7518 126.198 26.9218C125.662 28.0918 124.481 29.2795 123.3 29.8468C122.459 30.2723 122.083 30.3432 120.866 30.3432C119.65 30.3254 119.274 30.2545 118.397 29.8114C116.34 28.8009 115.141 26.975 115.159 24.8477C115.159 22.2595 116.894 20.15 119.614 19.4232C120.437 19.2104 122.298 19.3877 123.192 19.7777Z" fill="#323738"/>
<path d="M140.548 16.4982C139.045 16.9236 137.811 17.4554 136.648 18.2L135.538 18.8913L135.288 17.6682L135.055 16.4272H133.821H132.586V24.8477V33.2682H134.107H135.628V27.5245V21.7809L136.755 21.0718C140.28 18.785 142.982 18.6609 144.342 20.7172L144.843 21.4441L144.896 27.365L144.95 33.2682H146.471H147.974V27.3472C147.974 21.905 147.938 21.3377 147.616 20.2741C147.115 18.6963 145.863 17.3136 144.449 16.7818C143.143 16.3032 141.658 16.1968 140.548 16.4982Z" fill="#323738"/>
<path d="M172.398 16.4982C170.895 16.9236 169.66 17.4554 168.497 18.2L167.388 18.8913L167.137 17.6682L166.905 16.4272H165.67H164.435V24.8477V33.2682H165.956H167.477V27.5245V21.7809L168.604 21.0718C172.129 18.785 174.831 18.6609 176.191 20.7172L176.692 21.4441L176.746 27.365L176.799 33.2682H178.32H179.823V27.3472C179.823 21.905 179.787 21.3377 179.465 20.2741C178.964 18.6963 177.712 17.3136 176.298 16.7818C174.992 16.3032 173.507 16.1968 172.398 16.4982Z" fill="#323738"/>
<path d="M188.931 16.5159C186.945 17.0477 185.048 18.4304 183.939 20.15C181.791 23.465 182.328 28.145 185.173 30.9813C187.356 33.1263 190.487 33.9418 193.744 33.1795C195.533 32.7541 197.895 31.3536 197.895 30.7154C197.895 30.6091 197.501 30.0241 197.018 29.4213L196.159 28.3223L195.748 28.7477C195.533 28.9782 194.871 29.4213 194.263 29.7582C193.207 30.3077 193.046 30.3432 191.364 30.3432C189.736 30.3432 189.503 30.3077 188.734 29.8645C187.642 29.2086 186.533 27.95 186.104 26.8154L185.764 25.9113L192.527 25.8582L199.291 25.8227L199.398 25.2377C199.648 23.9436 198.951 21.4441 197.913 19.8309C196.07 17.0123 192.259 15.5941 188.931 16.5159ZM192.348 19.4586C193.493 19.7068 194.746 20.5754 195.39 21.515C196.41 23.0573 196.625 22.9863 190.935 22.9863H185.925L186.104 22.4723C186.211 22.1886 186.569 21.6391 186.909 21.2491C188.287 19.6536 190.291 18.98 192.348 19.4586Z" fill="#323738"/>
<path d="M208.076 16.5159C206.09 17.0477 204.193 18.4304 203.084 20.15C200.937 23.465 201.474 28.145 204.319 30.9813C206.501 33.1263 209.633 33.9418 212.889 33.1795C214.678 32.7541 217.04 31.3536 217.04 30.7154C217.04 30.6091 216.647 30.0241 216.164 29.4213L215.305 28.3223L214.893 28.7477C214.678 28.9782 214.016 29.4213 213.408 29.7582C212.352 30.3077 212.191 30.3432 210.509 30.3432C208.881 30.3432 208.649 30.3077 207.879 29.8645C206.788 29.2086 205.678 27.95 205.249 26.8154L204.909 25.9113L211.672 25.8582L218.436 25.8227L218.543 25.2377C218.794 23.9436 218.096 21.4441 217.058 19.8309C215.215 17.0123 211.404 15.5941 208.076 16.5159ZM211.494 19.4586C212.639 19.7068 213.891 20.5754 214.535 21.515C215.555 23.0573 215.77 22.9863 210.08 22.9863H205.07L205.249 22.4723C205.356 22.1886 205.714 21.6391 206.054 21.2491C207.432 19.6536 209.436 18.98 211.494 19.4586Z" fill="#323738"/>
<path d="M234.933 16.5336C234.396 16.6755 233.376 17.0655 232.697 17.4023C231.999 17.7391 231.39 18.0227 231.337 18.0227C231.265 18.0227 231.158 17.6682 231.104 17.225L230.979 16.4273H229.726H228.492V28.1273V39.8273H230.013H231.533V36.0868C231.533 32.5945 231.551 32.3464 231.856 32.4705C233.072 33.0023 234.307 33.3214 235.38 33.41C240.373 33.7468 244.416 29.9177 244.416 24.8477C244.416 22.5432 243.575 20.4514 242.001 18.7673C240.909 17.5973 239.764 16.9236 238.243 16.5159C236.955 16.1968 236.221 16.1968 234.933 16.5336ZM238.207 19.76C239.263 20.2209 240.247 21.2314 240.82 22.4368C241.178 23.2345 241.267 23.6955 241.285 24.8477C241.285 26.1064 241.213 26.4077 240.695 27.4714C239.657 29.5455 237.707 30.5914 235.345 30.3609C234.182 30.2368 232.786 29.7759 231.981 29.2618L231.533 28.9782V24.9364V20.8945L232.786 20.2564C234.808 19.1927 236.561 19.0332 238.207 19.76Z" fill="#323738"/>
<path d="M255.241 16.3741C253.989 16.64 252.54 17.2604 251.484 17.9341C250.822 18.3772 250.249 18.7318 250.231 18.7318C250.196 18.7318 250.088 18.2177 249.963 17.5795L249.748 16.4272H248.514H247.279V24.8477V33.2682H248.8H250.321V27.5245V21.7809L251.269 21.0718C253.452 19.4586 255.796 18.7495 257.335 19.2459C257.925 19.4409 257.979 19.5295 258.086 20.3272L258.212 21.2136H259.446H260.699V19.1927V17.1718L259.858 16.8882C258.301 16.3918 256.208 16.1613 255.241 16.3741Z" fill="#323738"/>
<path d="M269.502 16.6932C267.426 17.4023 265.959 18.4836 264.814 20.1854C263.741 21.7809 263.311 23.3586 263.436 25.2732C263.544 27.17 264.027 28.4995 265.136 29.9532C266.729 32.0273 269.162 33.2682 271.882 33.41C273.277 33.4809 273.671 33.4277 274.888 33.02C276.588 32.4527 277.518 31.8854 278.681 30.6977C282.421 26.9041 281.723 20.6995 277.214 17.7391C274.941 16.25 272.007 15.86 269.502 16.6932ZM274.566 19.7777C275.693 20.2741 277.053 21.5859 277.536 22.685C278.091 23.9259 278.108 25.7518 277.572 26.9218C277.035 28.0918 275.854 29.2795 274.673 29.8468C273.832 30.2723 273.456 30.3432 272.24 30.3432C271.023 30.3254 270.647 30.2545 269.77 29.8114C267.713 28.8009 266.514 26.975 266.532 24.8477C266.532 22.2595 268.267 20.15 270.987 19.4232C271.81 19.2104 273.671 19.3877 274.566 19.7777Z" fill="#323738"/>
<path d="M157.636 24.8477V33.2682H159.246H160.857V24.8477V16.4272H159.246H157.636V24.8477Z" fill="#323738"/>
<path d="M221.943 29.7227C221.299 29.9709 220.798 30.7686 220.798 31.5309C220.798 32.0982 220.923 32.3641 221.406 32.8427C221.907 33.3391 222.158 33.4454 222.748 33.4454C224.144 33.4454 225.092 32.6477 225.092 31.4954C225.092 31.1409 224.967 30.68 224.806 30.4673C224.251 29.6695 222.927 29.3327 221.943 29.7227Z" fill="#323738"/>
<path d="M123.64 47.8045C123.64 50.5168 123.658 50.6409 123.998 50.6409C124.32 50.6409 124.355 50.4991 124.391 48.1236L124.445 45.5886L125.071 47.06C125.68 48.4782 125.715 48.5136 126.324 48.5136C126.932 48.5136 126.968 48.4782 127.576 47.06L128.202 45.5886L128.256 48.1236C128.292 50.4991 128.328 50.6409 128.65 50.6409C128.99 50.6409 129.008 50.5168 129.008 47.8045V44.9682H128.346C127.666 44.9682 127.666 44.9859 127.039 46.3864C126.699 47.1664 126.377 47.8045 126.306 47.8045C126.252 47.8045 125.93 47.1664 125.59 46.3864C124.982 44.9682 124.982 44.9682 124.32 44.9682H123.64V47.8045Z" fill="#323738"/>
<path d="M168.551 45.1277C168.551 45.8723 170.125 46.1204 170.608 45.4645C170.948 44.9682 170.644 44.8086 170.161 45.2341C169.821 45.5354 169.088 45.4645 169.088 45.1277C169.088 45.0391 168.962 44.9682 168.819 44.9682C168.676 44.9682 168.551 45.0391 168.551 45.1277Z" fill="#323738"/>
<path d="M131.208 46.6345C130.815 46.8118 130.618 47.0245 130.618 47.2727C130.618 47.6982 131.244 47.7691 131.405 47.3614C131.566 46.9182 132.872 47.0068 133.195 47.4854C133.356 47.6982 133.481 47.9464 133.481 48.0173C133.481 48.0882 132.962 48.1059 132.336 48.035C131.262 47.9464 131.155 47.9641 130.725 48.3895C130.135 48.9745 130.135 49.6482 130.707 50.1977C131.208 50.7118 131.996 50.765 132.801 50.3573C133.302 50.0914 133.373 50.0914 133.517 50.3573C133.606 50.5168 133.803 50.6409 133.928 50.6409C134.143 50.6409 134.197 50.3218 134.197 49.0632C134.197 47.6627 134.143 47.4145 133.785 47.0068C133.284 46.4218 132.067 46.2445 131.208 46.6345ZM133.087 48.7973C133.642 48.9568 133.57 49.2936 132.908 49.6482C132.21 50.0204 131.352 49.9673 131.101 49.5418C130.672 48.8859 131.799 48.4604 133.087 48.7973Z" fill="#323738"/>
<path d="M134.733 49.3114C134.733 52.1123 134.751 52.2364 135.091 52.2364C135.395 52.2364 135.449 52.1123 135.449 51.3854V50.5345L136.523 50.5523C137.471 50.5523 137.65 50.4991 138.133 50.0204C139.189 48.9745 138.956 47.2195 137.686 46.6168C137.149 46.3686 136.934 46.3509 136.29 46.5104C135.825 46.6345 135.467 46.6523 135.377 46.5459C135.27 46.4573 135.091 46.3864 134.966 46.3864C134.787 46.3864 134.733 47.0245 134.733 49.3114ZM137.614 47.6095C138.187 48.1768 138.24 48.4427 137.936 49.1164C137.65 49.7191 136.845 50.0204 136.111 49.8254C135.556 49.6659 135.539 49.6304 135.485 48.5668C135.431 47.5209 135.449 47.4854 135.932 47.3082C136.755 47.0068 137.059 47.06 137.614 47.6095Z" fill="#323738"/>
<path d="M139.564 48.5136C139.564 50.5168 139.582 50.6409 139.922 50.6409C140.226 50.6409 140.28 50.5168 140.28 49.7545V48.8682H140.996C141.64 48.8682 141.765 48.9391 142.034 49.4354C142.463 50.2332 142.946 50.6764 143.286 50.6054C143.68 50.5345 143.805 49.9318 143.429 49.9318C143.268 49.9318 142.982 49.6127 142.785 49.2404C142.463 48.5845 142.445 48.4959 142.714 47.8932C142.857 47.5386 143.089 47.2195 143.232 47.1486C143.626 47.0068 143.572 46.3864 143.161 46.3864C142.714 46.3864 142.302 46.7941 141.98 47.5564C141.747 48.1059 141.658 48.1591 141.014 48.1591H140.28V47.2727C140.28 46.5104 140.226 46.3864 139.922 46.3864C139.582 46.3864 139.564 46.5104 139.564 48.5136Z" fill="#323738"/>
<path d="M145.254 46.67C144.306 47.1664 143.894 48.8505 144.503 49.7191C145.111 50.5877 146.453 50.8891 147.437 50.375C148.01 50.0736 148.081 49.9318 147.777 49.6305C147.634 49.4886 147.455 49.5064 147.115 49.6836C146.382 50.0559 145.863 49.985 145.326 49.4355L144.843 48.9568L146.596 48.9036C148.314 48.8505 148.332 48.8505 148.332 48.4073C148.332 46.9005 146.614 45.9255 145.254 46.67ZM147.205 47.4855C147.33 47.5918 147.437 47.7868 147.437 47.9109C147.437 48.1059 147.133 48.1591 146.185 48.1591C144.968 48.1591 144.932 48.1414 145.111 47.7868C145.469 47.1309 146.578 46.9714 147.205 47.4855Z" fill="#323738"/>
<path d="M148.869 46.7409C148.869 47.0423 148.994 47.0954 149.674 47.0954H150.479V48.8682C150.479 50.5168 150.497 50.6409 150.837 50.6409C151.177 50.6409 151.195 50.5168 151.195 48.8682V47.0954H151.91C152.501 47.0954 152.626 47.0423 152.626 46.7409C152.626 46.4041 152.501 46.3864 150.747 46.3864C148.994 46.3864 148.869 46.4041 148.869 46.7409Z" fill="#323738"/>
<path d="M153.521 48.5136C153.521 50.5168 153.539 50.6409 153.879 50.6409C154.219 50.6409 154.236 50.5168 154.236 48.8682V47.0954H155.489H156.741V48.8682C156.741 50.5168 156.759 50.6409 157.099 50.6409C157.439 50.6409 157.457 50.5168 157.457 48.5136V46.3864H155.489H153.521V48.5136Z" fill="#323738"/>
<path d="M158.889 46.7232C158.889 46.9182 158.978 47.0954 159.085 47.1309C159.246 47.1841 159.229 47.5386 159.05 48.4959C158.871 49.4886 158.745 49.8254 158.495 49.8964C158.066 50.0027 158.066 50.6409 158.495 50.6409C159.175 50.6409 159.461 50.1977 159.765 48.6732L160.07 47.1841L160.821 47.1309L161.573 47.0777V48.8504C161.573 50.5168 161.59 50.6409 161.93 50.6409C162.27 50.6409 162.288 50.5168 162.288 48.5136V46.3864H160.588C159.032 46.3864 158.889 46.4218 158.889 46.7232Z" fill="#323738"/>
<path d="M163.863 46.67C162.915 47.1664 162.503 48.8505 163.111 49.7191C163.72 50.5877 165.062 50.8891 166.046 50.375C166.618 50.0736 166.69 49.9318 166.386 49.6305C166.243 49.4886 166.064 49.5064 165.724 49.6836C164.99 50.0559 164.471 49.985 163.934 49.4355L163.451 48.9568L165.205 48.9036C166.923 48.8505 166.94 48.8505 166.94 48.4073C166.94 46.9005 165.223 45.9255 163.863 46.67ZM165.813 47.4855C165.938 47.5918 166.046 47.7868 166.046 47.9109C166.046 48.1059 165.742 48.1591 164.793 48.1591C163.577 48.1591 163.541 48.1414 163.72 47.7868C164.078 47.1309 165.187 46.9714 165.813 47.4855Z" fill="#323738"/>
<path d="M167.656 48.5314V50.6586L168.408 50.6054L169.159 50.5523L169.875 48.815C170.268 47.8754 170.644 47.0954 170.734 47.0954C170.805 47.0954 170.877 47.8932 170.877 48.8682C170.877 50.5168 170.895 50.6409 171.235 50.6409C171.575 50.6409 171.593 50.5168 171.593 48.5136V46.3864H170.913H170.215L169.445 48.1591C169.034 49.1341 168.622 49.9318 168.533 49.9318C168.443 49.9318 168.372 49.1341 168.372 48.1591C168.372 46.5104 168.354 46.3864 168.014 46.3864C167.674 46.3864 167.656 46.5104 167.656 48.5314Z" fill="#323738"/>
<path d="M173.257 46.67C172.666 46.9536 172.129 47.84 172.129 48.5136C172.129 49.6127 173.203 50.6409 174.348 50.6409C174.903 50.6409 176.066 50.1977 176.066 49.985C176.066 49.5773 175.672 49.4354 175.207 49.6836C174.312 50.1445 173.364 49.8609 173.006 49.0277C172.505 47.7868 174.026 46.5636 175.1 47.3614C175.601 47.7336 175.887 47.6804 175.887 47.2018C175.887 46.4573 174.348 46.1382 173.257 46.67Z" fill="#323738"/>
<path d="M176.781 48.5136V50.6409H178.213C179.519 50.6409 179.698 50.5877 180.092 50.1977C180.342 49.9673 180.539 49.5595 180.539 49.3114C180.539 49.0632 180.342 48.6554 180.092 48.425C179.734 48.0527 179.483 47.9818 178.571 47.9818H177.497V47.1841C177.497 46.5104 177.443 46.3864 177.139 46.3864C176.799 46.3864 176.781 46.5104 176.781 48.5136ZM179.698 49.0809C180.038 49.595 179.537 49.9318 178.463 49.9318H177.497V49.3114V48.6732L178.499 48.7264C179.215 48.7618 179.573 48.8682 179.698 49.0809Z" fill="#323738"/>
<path d="M181.076 48.5136C181.076 50.5168 181.094 50.6409 181.434 50.6409C181.774 50.6409 181.791 50.5168 181.791 48.5136C181.791 46.5104 181.774 46.3864 181.434 46.3864C181.094 46.3864 181.076 46.5104 181.076 48.5136Z" fill="#323738"/>
<path d="M184.833 48.5136C184.833 50.5168 184.851 50.6409 185.191 50.6409C185.531 50.6409 185.549 50.5168 185.549 48.8682V47.0954H186.801H188.054V48.8682C188.054 50.5168 188.072 50.6409 188.412 50.6409C188.752 50.6409 188.77 50.5168 188.77 48.5136V46.3864H186.801H184.833V48.5136Z" fill="#323738"/>
<path d="M190.291 46.7054C189.557 47.1664 189.306 47.4854 189.181 48.2123C189.002 49.3645 190.13 50.6409 191.328 50.6409C192.42 50.6409 193.601 49.5418 193.601 48.5136C193.601 47.8932 192.992 46.9891 192.366 46.6523C191.65 46.2977 190.953 46.3154 190.291 46.7054ZM192.366 47.6095C193.028 48.2654 193.028 48.7618 192.348 49.4354C191.883 49.8786 191.704 49.9495 191.221 49.8609C190.595 49.7368 189.843 49.0277 189.843 48.5491C189.843 48.1236 190.344 47.45 190.809 47.2727C191.471 47.0068 191.829 47.0777 192.366 47.6095Z" fill="#323738"/>
<path d="M194.853 46.7409C194.853 46.9536 194.978 47.0954 195.139 47.0954C195.354 47.0954 195.408 47.2018 195.336 47.4854C195.283 47.7159 195.175 48.2123 195.104 48.6023C194.943 49.5241 194.728 49.9318 194.406 49.9318C194.209 49.9318 194.137 50.1623 194.137 50.8182C194.137 51.5804 194.191 51.7045 194.495 51.7045C194.782 51.7045 194.853 51.5804 194.853 51.1727V50.6409H196.553H198.253V51.1727C198.253 51.5804 198.324 51.7045 198.611 51.7045C198.915 51.7045 198.969 51.5804 198.969 50.8182C198.969 50.1445 198.897 49.9318 198.7 49.9318C198.485 49.9318 198.432 49.6127 198.432 48.1591V46.3863H196.642C194.978 46.3863 194.853 46.4041 194.853 46.7409ZM197.716 48.5136V49.9318H196.625C195.569 49.9318 195.533 49.9141 195.64 49.5241C195.694 49.3113 195.837 48.6732 195.945 48.1059L196.159 47.0954H196.929H197.716V48.5136Z" fill="#323738"/>
<path d="M202.01 48.5136C202.01 50.5168 202.028 50.6409 202.368 50.6409C202.672 50.6409 202.726 50.5168 202.726 49.7545V48.8682H203.442C204.086 48.8682 204.211 48.9391 204.48 49.4354C204.909 50.2332 205.392 50.6764 205.732 50.6054C206.126 50.5345 206.251 49.9318 205.875 49.9318C205.714 49.9318 205.428 49.6127 205.231 49.2404C204.909 48.5845 204.891 48.4959 205.159 47.8932C205.303 47.5386 205.535 47.2195 205.678 47.1486C206.072 47.0068 206.018 46.3864 205.607 46.3864C205.159 46.3864 204.748 46.7941 204.426 47.5564C204.193 48.1059 204.104 48.1591 203.46 48.1591H202.726V47.2727C202.726 46.5104 202.672 46.3864 202.368 46.3864C202.028 46.3864 202.01 46.5104 202.01 48.5136Z" fill="#323738"/>
<path d="M207.378 46.7232C207.378 46.9182 207.468 47.0954 207.575 47.1309C207.736 47.1841 207.718 47.5386 207.539 48.4959C207.36 49.4886 207.235 49.8254 206.985 49.8964C206.555 50.0027 206.555 50.6409 206.985 50.6409C207.664 50.6409 207.951 50.1977 208.255 48.6732L208.559 47.1841L209.311 47.1309L210.062 47.0777V48.8504C210.062 50.5168 210.08 50.6409 210.42 50.6409C210.76 50.6409 210.778 50.5168 210.778 48.5136V46.3864H209.078C207.521 46.3864 207.378 46.4218 207.378 46.7232Z" fill="#323738"/>
<path d="M211.494 48.5136C211.494 50.5168 211.511 50.6409 211.851 50.6409C212.156 50.6409 212.209 50.5168 212.209 49.7545C212.209 48.8859 212.227 48.8682 212.746 48.8682C213.158 48.8682 213.336 48.9923 213.551 49.4C214.356 50.9245 216.718 51.0309 217.488 49.5773C217.953 48.6909 217.828 47.8932 217.148 47.1309C216.593 46.5459 216.432 46.475 215.663 46.475C214.625 46.475 213.855 46.9004 213.587 47.645C213.426 48.0704 213.283 48.1591 212.8 48.1591C212.209 48.1591 212.209 48.1591 212.209 47.2727C212.209 46.5104 212.156 46.3864 211.851 46.3864C211.511 46.3864 211.494 46.5104 211.494 48.5136ZM216.521 47.6095C217.166 48.2477 217.183 48.9036 216.593 49.4886C215.537 50.5345 213.73 49.4886 214.213 48.1059C214.392 47.6095 215.09 47.1132 215.663 47.0954C215.841 47.0954 216.235 47.3259 216.521 47.6095Z" fill="#323738"/>
<path d="M218.472 47.3614C218.472 48.1768 218.543 48.425 218.919 48.7795C219.277 49.1518 219.527 49.2227 220.44 49.2227H221.513V49.9318C221.513 50.5168 221.567 50.6409 221.871 50.6409C222.211 50.6409 222.229 50.5168 222.229 48.5136C222.229 46.5104 222.211 46.3864 221.871 46.3864C221.549 46.3864 221.513 46.5104 221.513 47.45V48.5136H220.529C219.402 48.5136 219.187 48.2832 219.187 47.1132C219.187 46.5104 219.134 46.3864 218.83 46.3864C218.507 46.3864 218.472 46.5104 218.472 47.3614Z" fill="#323738"/>
</g>
<defs>
<clipPath id="clip0_22_2">
<rect width="345" height="52" fill="white"/>
</clipPath>
</defs>
</svg>
