<svg width="383" height="74" viewBox="0 0 383 74" fill="none" xmlns="http://www.w3.org/2000/svg">
<g clip-path="url(#clip0_22_80)">
<path d="M0 35V70H55.6224H111.245V68.883V67.766H56.6157H1.98651V35V2.23404H191.599H381.212V35V67.766H327.378H273.543V68.883V70H328.272H383V35V0H191.5H0V35Z" fill="#E2E9F3"/>
<path d="M162.321 14.3984L160.489 14.7717V30.923V47.0742H162.622H164.756V30.5248C164.756 17.4346 164.681 13.9754 164.455 14.0002C164.279 14.0251 163.3 14.1993 162.321 14.3984Z" fill="#E2E9F3"/>
<path d="M170.63 15.1948C169.299 15.7672 168.873 17.6337 169.776 18.7785C171.333 20.7445 174.671 19.8237 174.671 17.4346C174.671 16.0907 173.742 15.1948 172.261 15.0704C171.659 15.0206 170.906 15.0704 170.63 15.1948Z" fill="#E2E9F3"/>
<path d="M49.4885 23.4322C48.4844 23.681 46.2001 24.776 44.8446 25.6719C43.9661 26.2692 43.9661 26.2692 43.6147 24.353L43.464 23.4322H41.732H40V35.2532V47.0742H42.1337H44.2673V38.6626V30.2759L45.7985 29.2805C49.8148 26.7172 53.3542 26.7669 54.9105 29.4049C55.4125 30.2262 55.4376 30.7239 55.5129 38.6626L55.5882 47.0742H57.6968H59.8304V38.7373V30.4252L60.9098 29.7035C63.169 28.1606 64.6249 27.5882 66.6079 27.4638C68.2646 27.3891 68.591 27.4389 69.344 27.9615C69.8209 28.2601 70.4485 28.9321 70.7246 29.4049C71.2267 30.2262 71.2518 30.7239 71.3271 38.6626L71.4024 47.0742H73.536H75.6697L75.5944 38.1649L75.5191 29.2805L74.6907 27.6131C73.3854 25 71.3271 23.681 67.9383 23.3077C65.5787 23.034 62.6167 24.0543 59.981 26.0452L58.8013 26.9163L57.6215 25.7217C55.7639 23.8304 52.074 22.7851 49.4885 23.4322Z" fill="#E2E9F3"/>
<path d="M88.9485 23.5815C88.1955 23.7806 86.7647 24.3281 85.8108 24.801C84.8318 25.2738 83.9784 25.672 83.9031 25.672C83.8026 25.672 83.652 25.1743 83.5767 24.5521L83.401 23.4322H81.6439H79.9119V39.8572V56.2822H82.0455H84.1792V51.0312C84.1792 46.1286 84.2043 45.7802 84.631 45.9544C86.3379 46.701 88.07 47.1489 89.5761 47.2734C96.5795 47.7462 102.252 42.3707 102.252 35.2532C102.252 32.018 101.073 29.0814 98.8637 26.7172C97.3325 25.0747 95.726 24.129 93.5924 23.5567C91.785 23.1087 90.7558 23.1087 88.9485 23.5815ZM93.5421 28.1109C95.0232 28.7579 96.4038 30.1764 97.207 31.8687C97.709 32.9886 97.8346 33.6356 97.8597 35.2532C97.8597 37.0202 97.7593 37.4432 97.0313 38.9364C95.5754 41.8481 92.8393 43.3164 89.5259 42.9929C87.8942 42.8187 85.9363 42.1717 84.8067 41.45L84.1792 41.0518V35.3777V29.7036L85.9363 28.8077C88.7728 27.3145 91.2328 27.0905 93.5421 28.1109Z" fill="#E2E9F3"/>
<path d="M114.352 23.8056C111.44 24.801 109.381 26.3191 107.775 28.7082C106.269 30.948 105.666 33.1629 105.842 35.8506C105.993 38.5134 106.67 40.3799 108.227 42.4206C110.461 45.3323 113.875 47.0743 117.69 47.2734C119.648 47.373 120.2 47.2983 121.907 46.7259C124.292 45.9296 125.597 45.1332 127.229 43.4658C132.475 38.1401 131.496 29.4299 125.17 25.2739C121.983 23.1834 117.866 22.6359 114.352 23.8056ZM121.455 28.1358C123.037 28.8326 124.945 30.6742 125.622 32.2172C126.4 33.9592 126.426 36.5225 125.673 38.165C124.919 39.8075 123.263 41.4749 121.606 42.2713C120.426 42.8685 119.899 42.9681 118.192 42.9681C116.485 42.9432 115.958 42.8437 114.728 42.2215C111.841 40.803 110.16 38.2397 110.185 35.2533C110.185 31.6199 112.62 28.6584 116.435 27.6381C117.59 27.3394 120.2 27.5883 121.455 28.1358Z" fill="#E2E9F3"/>
<path d="M145.804 23.5317C143.696 24.129 141.964 24.8756 140.332 25.9208L138.776 26.8914L138.424 25.1742L138.098 23.4322H136.366H134.634V35.2532V47.0742H136.768H138.901V39.011V30.9479L140.483 29.9524C145.428 26.7421 149.218 26.5679 151.126 29.4547L151.829 30.475L151.904 38.7871L151.979 47.0742H154.113H156.221V38.7622C156.221 31.1221 156.171 30.3257 155.719 28.8325C155.017 26.6176 153.259 24.6765 151.276 23.9299C149.444 23.258 147.36 23.1086 145.804 23.5317Z" fill="#E2E9F3"/>
<path d="M190.485 23.5317C188.377 24.129 186.645 24.8756 185.013 25.9208L183.457 26.8914L183.105 25.1742L182.779 23.4322H181.047H179.315V35.2532V47.0742H181.449H183.582V39.011V30.9479L185.164 29.9524C190.109 26.7421 193.899 26.5679 195.807 29.4547L196.51 30.475L196.585 38.7871L196.66 47.0742H198.794H200.903V38.7622C200.903 31.1221 200.852 30.3257 200.401 28.8325C199.698 26.6176 197.941 24.6765 195.958 23.9299C194.125 23.258 192.042 23.1086 190.485 23.5317Z" fill="#E2E9F3"/>
<path d="M213.679 23.5568C210.893 24.3034 208.232 26.2445 206.676 28.6585C203.664 33.3122 204.417 39.8822 208.408 43.864C211.47 46.8753 215.863 48.0201 220.432 46.95C222.942 46.3527 226.255 44.3867 226.255 43.4907C226.255 43.3414 225.703 42.5202 225.025 41.674L223.821 40.1311L223.243 40.7284C222.942 41.0519 222.013 41.674 221.16 42.1469C219.679 42.9184 219.453 42.9681 217.093 42.9681C214.809 42.9681 214.483 42.9184 213.403 42.2962C211.872 41.3754 210.316 39.6085 209.713 38.0157L209.236 36.7465L218.725 36.6719L228.213 36.6221L228.364 35.8009C228.715 33.9842 227.736 30.4752 226.281 28.2105C223.695 24.2536 218.348 22.2627 213.679 23.5568ZM218.474 27.6879C220.08 28.0363 221.837 29.2557 222.741 30.5747C224.172 32.7398 224.473 32.6403 216.491 32.6403H209.462L209.713 31.9186C209.864 31.5204 210.366 30.7489 210.843 30.2014C212.776 27.9617 215.587 27.016 218.474 27.6879Z" fill="#E2E9F3"/>
<path d="M240.538 23.5568C237.752 24.3034 235.091 26.2445 233.535 28.6585C230.523 33.3122 231.276 39.8822 235.267 43.864C238.329 46.8753 242.722 48.0201 247.291 46.95C249.801 46.3527 253.114 44.3867 253.114 43.4907C253.114 43.3414 252.562 42.5202 251.884 41.674L250.679 40.1311L250.102 40.7284C249.801 41.0519 248.872 41.674 248.019 42.1469C246.538 42.9184 246.312 42.9681 243.952 42.9681C241.668 42.9681 241.342 42.9184 240.262 42.2962C238.731 41.3754 237.175 39.6085 236.572 38.0157L236.095 36.7465L245.584 36.6719L255.072 36.6221L255.223 35.8009C255.574 33.9842 254.595 30.4752 253.139 28.2105C250.554 24.2536 245.207 22.2627 240.538 23.5568ZM245.333 27.6879C246.939 28.0363 248.696 29.2557 249.6 30.5747C251.031 32.7398 251.332 32.6403 243.35 32.6403H236.321L236.572 31.9186C236.723 31.5204 237.225 30.7489 237.702 30.2014C239.635 27.9617 242.446 27.016 245.333 27.6879Z" fill="#E2E9F3"/>
<path d="M278.216 23.5815C277.463 23.7806 276.032 24.3281 275.078 24.801C274.099 25.2738 273.246 25.672 273.171 25.672C273.07 25.672 272.92 25.1743 272.844 24.5521L272.669 23.4322H270.912H269.18V39.8572V56.2822H271.313H273.447V51.0312C273.447 46.1286 273.472 45.7802 273.899 45.9544C275.606 46.701 277.338 47.1489 278.844 47.2734C285.847 47.7462 291.52 42.3707 291.52 35.2532C291.52 32.018 290.34 29.0814 288.131 26.7172C286.6 25.0747 284.994 24.129 282.86 23.5567C281.053 23.1087 280.023 23.1087 278.216 23.5815ZM282.81 28.1109C284.291 28.7579 285.671 30.1764 286.475 31.8687C286.977 32.9886 287.102 33.6356 287.127 35.2532C287.127 37.0202 287.027 37.4432 286.299 38.9364C284.843 41.8481 282.107 43.3164 278.793 42.9929C277.162 42.8187 275.204 42.1717 274.074 41.45L273.447 41.0518V35.3777V29.7036L275.204 28.8077C278.04 27.3145 280.5 27.0905 282.81 28.1109Z" fill="#E2E9F3"/>
<path d="M306.707 23.3575C304.95 23.7308 302.916 24.6018 301.435 25.5475C300.507 26.1697 299.703 26.6674 299.678 26.6674C299.628 26.6674 299.477 25.9457 299.302 25.0498L299 23.4322H297.268H295.536V35.2532V47.0742H297.67H299.804V39.011V30.9479L301.134 29.9524C304.197 27.6877 307.485 26.6923 309.644 27.3891C310.472 27.6629 310.547 27.7873 310.698 28.9072L310.874 30.1515H312.606H314.363V27.3144V24.4774L313.183 24.0792C310.999 23.3824 308.062 23.0589 306.707 23.3575Z" fill="#E2E9F3"/>
<path d="M326.713 23.8056C323.801 24.801 321.743 26.3191 320.136 28.7082C318.63 30.948 318.028 33.1629 318.203 35.8506C318.354 38.5134 319.032 40.3799 320.588 42.4206C322.822 45.3323 326.236 47.0743 330.051 47.2734C332.009 47.373 332.562 47.2983 334.269 46.7259C336.653 45.9296 337.958 45.1332 339.59 43.4658C344.836 38.1401 343.857 29.4299 337.532 25.2739C334.344 23.1834 330.227 22.6359 326.713 23.8056ZM333.817 28.1358C335.398 28.8326 337.306 30.6742 337.984 32.2172C338.762 33.9592 338.787 36.5225 338.034 38.165C337.281 39.8075 335.624 41.4749 333.967 42.2713C332.787 42.8685 332.26 42.9681 330.553 42.9681C328.847 42.9432 328.319 42.8437 327.089 42.2215C324.203 40.803 322.521 38.2397 322.546 35.2533C322.546 31.6199 324.981 28.6584 328.796 27.6381C329.951 27.3394 332.562 27.5883 333.817 28.1358Z" fill="#E2E9F3"/>
<path d="M169.776 35.2532V47.0742H172.036H174.295V35.2532V23.4322H172.036H169.776V35.2532Z" fill="#E2E9F3"/>
<path d="M259.992 42.0971C259.089 42.4455 258.386 43.5654 258.386 44.6355C258.386 45.4319 258.561 45.8052 259.239 46.4771C259.942 47.1739 260.293 47.3232 261.122 47.3232C263.08 47.3232 264.41 46.2034 264.41 44.5857C264.41 44.088 264.234 43.441 264.009 43.1423C263.23 42.0224 261.373 41.5496 259.992 42.0971Z" fill="#E2E9F3"/>
<path d="M122 66.982C122 70.7897 122.025 70.9639 122.502 70.9639C122.954 70.9639 123.004 70.7648 123.054 67.43L123.13 63.8713L124.008 65.9368C124.862 67.9277 124.912 67.9775 125.765 67.9775C126.619 67.9775 126.669 67.9277 127.522 65.9368L128.401 63.8713L128.476 67.43C128.526 70.7648 128.577 70.9639 129.029 70.9639C129.505 70.9639 129.531 70.7897 129.531 66.982V63.0002H128.602C127.648 63.0002 127.648 63.0251 126.769 64.9911C126.292 66.0861 125.841 66.982 125.74 66.982C125.665 66.982 125.213 66.0861 124.736 64.9911C123.883 63.0002 123.883 63.0002 122.954 63.0002H122V66.982Z" fill="#E2E9F3"/>
<path d="M185.006 63.2243C185.006 64.2695 187.215 64.6179 187.892 63.6971C188.369 63.0003 187.942 62.7763 187.265 63.3736C186.788 63.7967 185.759 63.6971 185.759 63.2243C185.759 63.0998 185.583 63.0003 185.382 63.0003C185.181 63.0003 185.006 63.0998 185.006 63.2243Z" fill="#E2E9F3"/>
<path d="M132.618 65.3395C132.066 65.5884 131.79 65.887 131.79 66.2355C131.79 66.8327 132.668 66.9323 132.894 66.3599C133.12 65.7377 134.953 65.8622 135.404 66.5341C135.63 66.8327 135.806 67.1811 135.806 67.2807C135.806 67.3802 135.078 67.4051 134.199 67.3056C132.693 67.1811 132.543 67.206 131.94 67.8033C131.112 68.6245 131.112 69.5702 131.915 70.3417C132.618 71.0634 133.723 71.1381 134.852 70.5657C135.555 70.1924 135.655 70.1924 135.856 70.5657C135.982 70.7897 136.258 70.9639 136.434 70.9639C136.735 70.9639 136.81 70.5159 136.81 68.749C136.81 66.783 136.735 66.4345 136.233 65.8622C135.53 65.0409 133.823 64.792 132.618 65.3395ZM135.254 68.3757C136.032 68.5997 135.932 69.0725 135.003 69.5702C134.024 70.0928 132.819 70.0182 132.467 69.4209C131.865 68.5001 133.446 67.9028 135.254 68.3757Z" fill="#E2E9F3"/>
<path d="M137.563 69.0974C137.563 73.0294 137.588 73.2036 138.065 73.2036C138.492 73.2036 138.567 73.0294 138.567 72.0091V70.8145L140.073 70.8394C141.404 70.8394 141.655 70.7647 142.332 70.0928C143.813 68.6245 143.487 66.1608 141.705 65.3146C140.952 64.9662 140.651 64.9413 139.747 65.1653C139.094 65.3395 138.592 65.3644 138.467 65.2151C138.316 65.0907 138.065 64.9911 137.889 64.9911C137.638 64.9911 137.563 65.887 137.563 69.0974ZM141.605 66.7083C142.408 67.5046 142.483 67.8779 142.056 68.8236C141.655 69.6697 140.525 70.0928 139.496 69.8191C138.718 69.5951 138.693 69.5453 138.617 68.0521C138.542 66.5838 138.567 66.5341 139.245 66.2852C140.4 65.8621 140.826 65.9368 141.605 66.7083Z" fill="#E2E9F3"/>
<path d="M144.341 67.9775C144.341 70.7897 144.366 70.9639 144.843 70.9639C145.269 70.9639 145.345 70.7897 145.345 69.7195V68.4752H146.349C147.252 68.4752 147.428 68.5748 147.805 69.2716C148.407 70.3915 149.085 71.0136 149.562 70.9141C150.114 70.8145 150.29 69.9684 149.763 69.9684C149.537 69.9684 149.135 69.5205 148.859 68.9978C148.407 68.077 148.382 67.9526 148.759 67.1065C148.959 66.6088 149.286 66.1608 149.487 66.0613C150.039 65.8622 149.963 64.9911 149.386 64.9911C148.759 64.9911 148.181 65.5635 147.729 66.6336C147.403 67.4051 147.278 67.4798 146.374 67.4798H145.345V66.2355C145.345 65.1653 145.269 64.9911 144.843 64.9911C144.366 64.9911 144.341 65.1653 144.341 67.9775Z" fill="#E2E9F3"/>
<path d="M152.323 65.3891C150.993 66.0859 150.415 68.4501 151.269 69.6695C152.122 70.889 154.005 71.312 155.385 70.5903C156.189 70.1673 156.289 69.9682 155.862 69.5451C155.662 69.346 155.411 69.3709 154.934 69.6198C153.904 70.1424 153.176 70.0428 152.423 69.2714L151.746 68.5994L154.206 68.5248C156.615 68.4501 156.641 68.4501 156.641 67.8279C156.641 65.7126 154.231 64.3439 152.323 65.3891ZM155.059 66.5339C155.235 66.6832 155.385 66.9569 155.385 67.1311C155.385 67.4049 154.959 67.4795 153.628 67.4795C151.921 67.4795 151.871 67.4547 152.122 66.9569C152.624 66.0361 154.181 65.8122 155.059 66.5339Z" fill="#E2E9F3"/>
<path d="M157.394 65.4889C157.394 65.9119 157.569 65.9866 158.523 65.9866H159.653V68.4752C159.653 70.7897 159.678 70.9639 160.155 70.9639C160.632 70.9639 160.657 70.7897 160.657 68.4752V65.9866H161.661C162.489 65.9866 162.665 65.9119 162.665 65.4889C162.665 65.016 162.489 64.9911 160.029 64.9911C157.569 64.9911 157.394 65.016 157.394 65.4889Z" fill="#E2E9F3"/>
<path d="M163.92 67.9775C163.92 70.7897 163.945 70.9639 164.422 70.9639C164.899 70.9639 164.924 70.7897 164.924 68.4752V65.9866H166.681H168.438V68.4752C168.438 70.7897 168.463 70.9639 168.94 70.9639C169.417 70.9639 169.442 70.7897 169.442 67.9775V64.9911H166.681H163.92V67.9775Z" fill="#E2E9F3"/>
<path d="M171.451 65.464C171.451 65.7377 171.576 65.9866 171.727 66.0364C171.953 66.111 171.928 66.6088 171.676 67.9526C171.425 69.3463 171.25 69.8191 170.898 69.9186C170.296 70.068 170.296 70.9639 170.898 70.9639C171.852 70.9639 172.254 70.3417 172.681 68.2015L173.107 66.111L174.162 66.0364L175.216 65.9617V68.4503C175.216 70.7897 175.241 70.9639 175.718 70.9639C176.195 70.9639 176.22 70.7897 176.22 67.9775V64.9911H173.835C171.651 64.9911 171.451 65.0409 171.451 65.464Z" fill="#E2E9F3"/>
<path d="M178.429 65.3891C177.098 66.0859 176.521 68.4501 177.375 69.6695C178.228 70.889 180.111 71.312 181.491 70.5903C182.295 70.1673 182.395 69.9682 181.968 69.5451C181.767 69.346 181.516 69.3709 181.039 69.6198C180.01 70.1424 179.282 70.0428 178.529 69.2714L177.852 68.5994L180.311 68.5248C182.721 68.4501 182.746 68.4501 182.746 67.8279C182.746 65.7126 180.337 64.3439 178.429 65.3891ZM181.165 66.5339C181.341 66.6832 181.491 66.9569 181.491 67.1311C181.491 67.4049 181.065 67.4795 179.734 67.4795C178.027 67.4795 177.977 67.4547 178.228 66.9569C178.73 66.0361 180.286 65.8122 181.165 66.5339Z" fill="#E2E9F3"/>
<path d="M183.75 68.0024V70.9888L184.805 70.9141L185.859 70.8395L186.863 68.4006C187.415 67.0816 187.942 65.9866 188.068 65.9866C188.168 65.9866 188.269 67.1065 188.269 68.4752C188.269 70.7897 188.294 70.9639 188.771 70.9639C189.248 70.9639 189.273 70.7897 189.273 67.9775V64.9912H188.319H187.34L186.261 67.4798C185.683 68.8485 185.106 69.9684 184.98 69.9684C184.855 69.9684 184.755 68.8485 184.755 67.4798C184.755 65.1654 184.729 64.9912 184.253 64.9912C183.776 64.9912 183.75 65.1654 183.75 68.0024Z" fill="#E2E9F3"/>
<path d="M191.607 65.3893C190.779 65.7875 190.026 67.0318 190.026 67.9775C190.026 69.5205 191.532 70.9639 193.139 70.9639C193.917 70.9639 195.548 70.3417 195.548 70.0431C195.548 69.4707 194.996 69.2716 194.343 69.62C193.088 70.267 191.758 69.8689 191.256 68.6992C190.553 66.9572 192.687 65.24 194.193 66.3599C194.896 66.8825 195.297 66.8078 195.297 66.1359C195.297 65.0907 193.139 64.6427 191.607 65.3893Z" fill="#E2E9F3"/>
<path d="M196.552 67.9775V70.9639H198.561C200.393 70.9639 200.644 70.8892 201.196 70.3417C201.548 70.0182 201.824 69.4458 201.824 69.0974C201.824 68.749 201.548 68.1766 201.196 67.8531C200.694 67.3305 200.343 67.2309 199.063 67.2309H197.556V66.111C197.556 65.1653 197.481 64.9911 197.054 64.9911C196.578 64.9911 196.552 65.1653 196.552 67.9775ZM200.644 68.7739C201.121 69.4956 200.418 69.9684 198.912 69.9684H197.556V69.0974V68.2015L198.962 68.2761C199.966 68.3259 200.468 68.4752 200.644 68.7739Z" fill="#E2E9F3"/>
<path d="M202.577 67.9775C202.577 70.7897 202.602 70.9639 203.079 70.9639C203.556 70.9639 203.581 70.7897 203.581 67.9775C203.581 65.1653 203.556 64.9911 203.079 64.9911C202.602 64.9911 202.577 65.1653 202.577 67.9775Z" fill="#E2E9F3"/>
<path d="M207.848 67.9775C207.848 70.7897 207.873 70.9639 208.35 70.9639C208.827 70.9639 208.852 70.7897 208.852 68.4752V65.9866H210.609H212.367V68.4752C212.367 70.7897 212.392 70.9639 212.869 70.9639C213.346 70.9639 213.371 70.7897 213.371 67.9775V64.9911H210.609H207.848V67.9775Z" fill="#E2E9F3"/>
<path d="M215.504 65.4391C214.475 66.0861 214.124 66.5341 213.948 67.5544C213.697 69.172 215.278 70.9639 216.96 70.9639C218.491 70.9639 220.148 69.4209 220.148 67.9775C220.148 67.1065 219.295 65.8373 218.416 65.3644C217.412 64.8667 216.433 64.8916 215.504 65.4391ZM218.416 66.7083C219.345 67.6291 219.345 68.3259 218.391 69.2716C217.738 69.8938 217.487 69.9933 216.81 69.8689C215.931 69.6947 214.877 68.6992 214.877 68.0273C214.877 67.43 215.58 66.4843 216.232 66.2355C217.161 65.8622 217.663 65.9617 218.416 66.7083Z" fill="#E2E9F3"/>
<path d="M221.905 65.4888C221.905 65.7875 222.081 65.9866 222.307 65.9866C222.608 65.9866 222.683 66.1359 222.583 66.5341C222.508 66.8576 222.357 67.5544 222.257 68.1019C222.031 69.396 221.729 69.9684 221.278 69.9684C221.002 69.9684 220.901 70.2919 220.901 71.2127C220.901 72.2828 220.976 72.457 221.403 72.457C221.805 72.457 221.905 72.2828 221.905 71.7104V70.9638H224.29H226.675V71.7104C226.675 72.2828 226.775 72.457 227.177 72.457C227.603 72.457 227.679 72.2828 227.679 71.2127C227.679 70.267 227.578 69.9684 227.302 69.9684C227.001 69.9684 226.926 69.5204 226.926 67.4798V64.9911H224.415C222.081 64.9911 221.905 65.016 221.905 65.4888ZM225.921 67.9775V69.9684H224.39C222.909 69.9684 222.859 69.9435 223.01 69.396C223.085 69.0974 223.286 68.2015 223.436 67.4051L223.738 65.9866H224.817H225.921V67.9775Z" fill="#E2E9F3"/>
<path d="M231.946 67.9775C231.946 70.7897 231.971 70.9639 232.448 70.9639C232.875 70.9639 232.95 70.7897 232.95 69.7195V68.4752H233.954C234.858 68.4752 235.033 68.5748 235.41 69.2716C236.012 70.3915 236.69 71.0136 237.167 70.9141C237.719 70.8145 237.895 69.9684 237.368 69.9684C237.142 69.9684 236.74 69.5205 236.464 68.9978C236.012 68.077 235.987 67.9526 236.364 67.1065C236.565 66.6088 236.891 66.1608 237.092 66.0613C237.644 65.8622 237.569 64.9911 236.991 64.9911C236.364 64.9911 235.787 65.5635 235.335 66.6336C235.008 67.4051 234.883 67.4798 233.979 67.4798H232.95V66.2355C232.95 65.1653 232.875 64.9911 232.448 64.9911C231.971 64.9911 231.946 65.1653 231.946 67.9775Z" fill="#E2E9F3"/>
<path d="M239.476 65.464C239.476 65.7377 239.602 65.9866 239.753 66.0364C239.979 66.111 239.953 66.6088 239.702 67.9526C239.451 69.3463 239.276 69.8191 238.924 69.9186C238.322 70.068 238.322 70.9639 238.924 70.9639C239.878 70.9639 240.28 70.3417 240.706 68.2015L241.133 66.111L242.187 66.0364L243.242 65.9617V68.4503C243.242 70.7897 243.267 70.9639 243.744 70.9639C244.221 70.9639 244.246 70.7897 244.246 67.9775V64.9911H241.861C239.677 64.9911 239.476 65.0409 239.476 65.464Z" fill="#E2E9F3"/>
<path d="M245.25 67.9775C245.25 70.7897 245.275 70.9639 245.752 70.9639C246.179 70.9639 246.254 70.7897 246.254 69.7195C246.254 68.5001 246.279 68.4752 247.007 68.4752C247.584 68.4752 247.835 68.6494 248.137 69.2218C249.266 71.362 252.58 71.5114 253.659 69.4707C254.312 68.2264 254.136 67.1065 253.182 66.0364C252.404 65.2151 252.178 65.1156 251.099 65.1156C249.643 65.1156 248.563 65.7128 248.187 66.7581C247.961 67.3553 247.76 67.4798 247.082 67.4798C246.254 67.4798 246.254 67.4798 246.254 66.2355C246.254 65.1653 246.179 64.9911 245.752 64.9911C245.275 64.9911 245.25 65.1653 245.25 67.9775ZM252.303 66.7083C253.207 67.6042 253.232 68.525 252.404 69.3463C250.923 70.8145 248.388 69.3463 249.065 67.4051C249.316 66.7083 250.295 66.0115 251.099 65.9866C251.35 65.9866 251.902 66.3101 252.303 66.7083Z" fill="#E2E9F3"/>
<path d="M255.04 66.3599C255.04 67.5047 255.14 67.8531 255.667 68.3508C256.169 68.8734 256.521 68.973 257.801 68.973H259.307V69.9684C259.307 70.7897 259.382 70.9639 259.809 70.9639C260.286 70.9639 260.311 70.7897 260.311 67.9775C260.311 65.1653 260.286 64.9911 259.809 64.9911C259.357 64.9911 259.307 65.1653 259.307 66.4843V67.9775H257.926C256.345 67.9775 256.044 67.654 256.044 66.0115C256.044 65.1653 255.968 64.9911 255.542 64.9911C255.09 64.9911 255.04 65.1653 255.04 66.3599Z" fill="#E2E9F3"/>
</g>
<defs>
<clipPath id="clip0_22_80">
<rect width="383" height="74" fill="white"/>
</clipPath>
</defs>
</svg>
