<svg width="84" height="53" viewBox="0 0 84 53" fill="none" xmlns="http://www.w3.org/2000/svg">
<rect x="9.37776" y="0.773926" width="77.2143" height="29.9714" rx="14.9857" transform="rotate(17.1239 9.37776 0.773926)" fill="#306BC2"/>
<path d="M14.6746 22.6675L16.5826 16.4748L19.398 17.3422C19.6006 17.4046 19.7863 17.4744 19.9551 17.5515C20.1238 17.6286 20.266 17.7038 20.3815 17.7771C20.6526 17.9568 20.8634 18.2101 21.0138 18.5369C21.1655 18.8599 21.1724 19.245 21.0346 19.6922C20.9533 19.956 20.8441 20.1609 20.707 20.3071C20.5711 20.4493 20.4167 20.5566 20.2437 20.6289C20.1623 20.6624 20.0812 20.6877 20.0006 20.7047C19.9201 20.7217 19.8418 20.7311 19.766 20.7328C19.908 20.8017 20.0359 20.8892 20.1496 20.9954C20.3281 21.1634 20.4568 21.3705 20.5358 21.6167C20.6187 21.8641 20.6036 22.1712 20.4905 22.5382C20.3621 22.9549 20.1525 23.2754 19.8615 23.4996C19.5756 23.7213 19.2225 23.828 18.8023 23.8199C18.6491 23.8146 18.4778 23.7932 18.2884 23.7558C18.1002 23.7145 17.9105 23.6645 17.7194 23.6056L14.6746 22.6675ZM16.4023 22.032L17.9505 22.509C18.0308 22.5338 18.121 22.5532 18.2213 22.5674C18.3216 22.5815 18.4141 22.587 18.4988 22.5838C18.6517 22.5765 18.7782 22.5192 18.8782 22.4119C18.9821 22.3058 19.0552 22.1839 19.0976 22.0463C19.1553 21.859 19.1535 21.6952 19.092 21.5549C19.0356 21.4119 18.9483 21.3013 18.8301 21.223C18.7631 21.1689 18.6843 21.1258 18.5937 21.0937C18.5082 21.059 18.4367 21.0328 18.3794 21.0151L16.8599 20.5469L16.4023 22.032ZM17.1938 19.4632L18.3406 19.8165C18.4591 19.853 18.5755 19.8826 18.6899 19.9053C18.8093 19.9254 18.9125 19.93 18.9996 19.9191C19.141 19.9083 19.2587 19.8524 19.3525 19.7516C19.4502 19.652 19.5214 19.5295 19.5662 19.3842C19.6133 19.2313 19.6213 19.0831 19.5902 18.9396C19.564 18.7934 19.4848 18.6769 19.3525 18.5901C19.2687 18.5224 19.1586 18.4655 19.0222 18.4193C18.8896 18.3742 18.8041 18.3458 18.7659 18.334L17.6478 17.9896L17.1938 19.4632ZM21.0863 24.6429L22.9886 18.4484L24.3705 18.8742L23.7345 20.9384L24.4283 21.1522C24.6003 21.2052 24.7922 21.2685 25.0039 21.3421C25.2194 21.4169 25.3957 21.49 25.5327 21.5615C25.857 21.7452 26.1156 21.9588 26.3084 22.2023C26.5051 22.4471 26.6266 22.7252 26.6729 23.0366C26.7193 23.3481 26.6836 23.695 26.5658 24.0772C26.3974 24.6239 26.1211 25.018 25.7369 25.2596C25.3539 25.4974 24.89 25.5972 24.345 25.559C24.1854 25.5475 23.9929 25.5133 23.7676 25.4565C23.5436 25.3958 23.3455 25.339 23.1735 25.286L21.0863 24.6429ZM22.7964 23.9832L23.6278 24.2394C23.7119 24.2653 23.8067 24.2903 23.9123 24.3145C24.0179 24.3386 24.1207 24.3514 24.2206 24.353C24.4068 24.3601 24.5915 24.304 24.7748 24.1846C24.9592 24.0615 25.0879 23.8814 25.161 23.6444C25.2375 23.3959 25.2336 23.1708 25.1493 22.969C25.065 22.7673 24.933 22.6115 24.7533 22.5017C24.6687 22.4505 24.5797 22.4064 24.4865 22.3693C24.3971 22.3334 24.3123 22.3031 24.232 22.2783L23.4006 22.0222L22.7964 23.9832ZM26.5795 26.3354L28.4875 20.1426L29.8694 20.5684L27.9614 26.7611L26.5795 26.3354ZM29.5699 27.2567L31.4779 21.064L35.8931 22.4243L35.4938 23.7202L32.4605 22.7856L30.9518 27.6825L29.5699 27.2567ZM37.6501 29.9345C37.0308 29.7437 36.5329 29.4376 36.1563 29.016C35.7797 28.5944 35.5388 28.0995 35.4334 27.5313C35.333 26.9605 35.3812 26.3558 35.5779 25.7175C35.7781 25.0676 36.0836 24.5381 36.4943 24.1288C36.9049 23.7196 37.384 23.4487 37.9313 23.3159C38.4787 23.1832 39.0562 23.2105 39.664 23.3977C40.2871 23.5897 40.787 23.8965 41.1635 24.3181C41.5401 24.7396 41.7805 25.2364 41.8847 25.8085C41.99 26.3767 41.9444 26.98 41.7477 27.6184C41.5498 28.2606 41.245 28.7882 40.8331 29.2012C40.4262 29.6116 39.9485 29.8851 39.4 30.0216C38.8527 30.1544 38.2693 30.1253 37.6501 29.9345ZM38.0493 28.6386C38.5998 28.8082 39.0654 28.7508 39.446 28.4662C39.8267 28.1817 40.1065 27.7489 40.2855 27.1679C40.4704 26.5677 40.4819 26.0481 40.3201 25.6089C40.1594 25.166 39.8076 24.8609 39.2648 24.6936C38.894 24.5794 38.5622 24.5693 38.2696 24.6633C37.9819 24.7546 37.7349 24.9317 37.5283 25.1946C37.3229 25.4536 37.1602 25.778 37.0401 26.1679C36.8551 26.7681 36.843 27.2897 37.0037 27.7326C37.1694 28.1729 37.518 28.4749 38.0493 28.6386ZM41.1744 32.3388L41.9322 29.8789C42.2686 29.9826 42.5429 29.9415 42.755 29.7557C42.9671 29.5699 43.2024 29.2071 43.4608 28.6673C43.6179 28.3473 43.7714 28.0054 43.9212 27.6414C44.0711 27.2773 44.2216 26.8905 44.3729 26.4809C44.5281 26.0725 44.6865 25.6399 44.8481 25.1833L49.4582 26.6037L47.8842 31.7127L48.5092 31.9052L47.7513 34.3651L46.4439 33.9623L46.8679 32.5862L42.9 31.3637L42.476 32.7398L41.1744 32.3388ZM43.7843 30.4495L46.508 31.2887L47.7482 27.2634L45.7241 26.6398C45.6419 26.8656 45.5561 27.0966 45.4666 27.3327C45.3783 27.565 45.2881 27.7967 45.196 28.0278C45.1038 28.2589 45.0127 28.4799 44.9227 28.6907C44.8376 28.8989 44.7534 29.0906 44.6701 29.2659C44.5291 29.574 44.3963 29.8219 44.2715 30.0095C44.1467 30.197 43.9843 30.3437 43.7843 30.4495ZM49.3139 33.3398L51.2219 27.147L52.6038 27.5728L51.8512 30.0155L54.6322 30.8723L55.3848 28.4296L56.7667 28.8554L54.8587 35.0481L53.4768 34.6224L54.2329 32.1682L51.4519 31.3114L50.6958 33.7655L49.3139 33.3398ZM59.1414 36.556C58.5222 36.3652 58.0243 36.059 57.6477 35.6374C57.2711 35.2159 57.0301 34.721 56.9248 34.1528C56.8244 33.5819 56.8726 32.9773 57.0693 32.3389C57.2695 31.689 57.5749 31.1595 57.9856 30.7503C58.3963 30.3411 58.8753 30.0701 59.4227 29.9374C59.97 29.8047 60.5476 29.8319 61.1554 30.0192C61.7785 30.2112 62.2783 30.5179 62.6549 30.9395C63.0315 31.3611 63.2719 31.8579 63.376 32.4299C63.4814 32.9981 63.4358 33.6014 63.2391 34.2398C63.0412 34.882 62.7363 35.4096 62.3245 35.8227C61.9176 36.2331 61.4399 36.5065 60.8914 36.6431C60.344 36.7758 59.7607 36.7468 59.1414 36.556ZM59.5407 35.2601C60.0912 35.4297 60.5567 35.3722 60.9374 35.0877C61.318 34.8031 61.5979 34.3703 61.7769 33.7893C61.9618 33.1891 61.9733 32.6695 61.8114 32.2304C61.6507 31.7874 61.299 31.4823 60.7562 31.3151C60.3854 31.2008 60.0536 31.1907 59.761 31.2847C59.4733 31.3761 59.2262 31.5532 59.0197 31.816C58.8143 32.075 58.6516 32.3995 58.5314 32.7894C58.3465 33.3895 58.3344 33.9111 58.4951 34.3541C58.6608 34.7944 59.0094 35.0964 59.5407 35.2601ZM64.1219 37.9021L64.5123 36.6348L65.8942 37.0606L65.5037 38.3278L64.1219 37.9021ZM64.7578 35.8378L66.6658 29.6451L68.0477 30.0708L66.1397 36.2636L64.7578 35.8378Z" fill="white"/>
</svg>
